<?xml version="1.0" standalone="no"?>
<!DOCTYPE svg PUBLIC "-//W3C//DTD SVG 20010904//EN"
 "http://www.w3.org/TR/2001/REC-SVG-20010904/DTD/svg10.dtd">
<svg version="1.0" xmlns="http://www.w3.org/2000/svg"
 width="900.000000pt" height="717.000000pt" viewBox="0 0 900.000000 717.000000"
 preserveAspectRatio="xMidYMid meet">
<metadata>
Created by potrace 1.10, written by Peter Selinger 2001-2011
</metadata>
<rect width="100%" height="100%" fill="#1b1f23"/> <!-- Black background -->
<g transform="translate(0.000000,717.000000) scale(0.100000,-0.100000)"
fill="none" stroke="#ffffff" stroke-width="15"> <!-- No fill, white stroke -->
<path d="M4408 7152 c-3 -12 -28 -27 -69 -42 -97 -35 -191 -94 -261 -164 -121
-121 -131 -136 -179 -275 -42 -124 -41 -231 5 -368 82 -249 240 -400 486 -464
108 -28 303 -15 397 27 17 8 34 14 38 14 15 0 144 97 198 149 61 59 130 171
142 231 4 19 18 67 30 105 29 86 26 202 -6 310 -34 112 -112 228 -207 308 -50
42 -232 147 -255 147 -18 0 -40 24 -30 33 3 4 -59 7 -139 7 -133 0 -146 -2
-150 -18z m252 -128 c69 -15 121 -33 160 -55 8 -5 25 -14 38 -19 46 -20 166
-153 198 -220 52 -108 66 -166 61 -250 -5 -78 -25 -174 -45 -223 -7 -16 -12
-30 -12 -33 0 -2 -15 -27 -32 -56 -71 -115 -194 -204 -348 -252 -41 -13 -79
-16 -150 -13 -163 7 -275 54 -386 162 -39 39 -74 77 -78 85 -3 8 -17 35 -31
59 -14 24 -25 49 -25 55 0 6 -8 25 -17 41 -13 24 -17 59 -17 170 l-1 140 39
80 c30 62 57 99 121 162 45 45 93 87 106 93 13 5 31 14 39 19 58 35 179 69
250 70 30 1 89 -6 130 -15z"/>
<path d="M4525 6824 c-98 -20 -132 -29 -146 -41 -8 -7 -19 -13 -23 -13 -16 0
-95 -68 -126 -108 -59 -77 -100 -199 -86 -258 4 -16 11 -45 15 -64 25 -103
106 -199 219 -257 57 -30 70 -33 157 -33 125 0 206 32 291 115 81 79 114 153
114 257 0 154 -86 295 -220 360 -34 17 -150 49 -166 47 -5 -1 -18 -3 -29 -5z
m83 -196 c181 -87 184 -302 5 -379 -56 -24 -79 -24 -131 1 -138 67 -174 232
-70 326 40 36 110 73 137 74 8 0 35 -10 59 -22z"/>
<path d="M3401 6733 c-58 -30 -136 -109 -157 -160 -36 -84 -3 -200 80 -284 75
-76 88 -105 92 -213 8 -178 13 -245 22 -263 5 -10 24 -47 41 -83 39 -80 123
-185 176 -222 44 -30 115 -48 115 -29 0 6 -8 15 -17 18 -26 10 -96 86 -140
152 -21 31 -40 58 -43 61 -16 15 -38 61 -52 105 -13 40 -15 92 -13 268 l3 218
-44 11 c-23 7 -58 26 -77 44 -94 85 -90 194 11 270 32 25 46 29 102 29 56 0
70 -4 103 -29 44 -34 77 -92 77 -136 0 -33 -21 -82 -49 -113 -14 -16 -15 -46
-13 -220 l3 -202 35 -33 c53 -51 36 -81 -34 -58 -27 9 -42 -18 -24 -43 7 -9
17 -26 22 -39 6 -13 16 -29 23 -36 6 -7 28 -33 47 -59 19 -25 40 -47 47 -47
22 0 43 -31 43 -64 0 -18 6 -41 14 -52 14 -18 15 -18 25 9 13 33 1 100 -23
126 -9 10 -16 25 -16 34 0 10 -13 31 -30 49 -34 35 -39 75 -15 112 14 20 13
28 -6 82 -19 53 -20 75 -16 219 4 141 8 168 31 229 36 94 34 171 -6 223 -7 9
-38 42 -69 73 -86 86 -171 103 -268 53z"/>
<path d="M5528 6746 c-59 -16 -126 -70 -169 -138 -30 -46 -34 -60 -33 -113 1
-35 12 -89 26 -130 22 -61 25 -88 26 -215 1 -118 -2 -155 -18 -204 -11 -33
-20 -81 -20 -107 0 -30 -9 -69 -24 -101 -49 -109 -66 -189 -50 -232 10 -26 24
-7 24 32 0 23 7 44 18 54 28 27 40 44 72 103 48 89 58 125 43 155 -20 39 -15
67 16 97 l30 28 3 198 c2 127 -1 200 -7 205 -47 33 -60 136 -24 196 31 53 82
80 155 80 56 1 65 -2 106 -36 61 -50 83 -110 63 -169 -22 -61 -50 -91 -123
-129 l-66 -35 -1 -235 0 -235 -33 -58 c-39 -70 -94 -145 -151 -207 -57 -61
-67 -80 -44 -80 50 0 149 91 224 206 71 108 79 139 90 324 10 157 27 240 51
240 19 0 102 99 127 153 25 53 27 65 19 118 -10 74 -20 94 -80 157 -67 71
-165 101 -250 78z"/>
<path d="M3464 6542 c-38 -32 -45 -55 -26 -93 15 -31 22 -34 64 -37 46 -3 49
-2 64 32 14 29 15 40 5 64 -12 28 -47 52 -74 52 -7 -1 -21 -9 -33 -18z"/>
<path d="M5557 6549 c-9 -5 -24 -23 -32 -38 -13 -25 -12 -32 4 -62 40 -74 123
-55 129 30 3 34 -1 46 -20 61 -26 21 -54 25 -81 9z"/>
<path d="M2881 6391 c-29 -11 -60 -26 -70 -33 -54 -40 -87 -81 -117 -143 -36
-74 -38 -115 -12 -205 24 -81 136 -200 189 -200 8 0 23 -6 34 -14 33 -22 144
-58 163 -52 59 19 199 203 221 292 34 132 -30 254 -177 340 -60 36 -158 42
-231 15z m156 -89 c178 -59 219 -244 83 -377 -27 -26 -40 -48 -40 -65 0 -32
-33 -65 -55 -57 -9 4 -15 19 -15 37 0 17 -6 32 -12 34 -7 2 -38 9 -67 16 -59
14 -66 18 -114 67 -32 34 -65 103 -66 140 -2 49 50 131 111 178 14 11 97 43
113 44 6 0 33 -7 62 -17z"/>
<path d="M2907 6163 c-42 -42 -48 -77 -17 -115 31 -40 75 -54 118 -38 48 17
71 47 72 91 0 30 -7 43 -35 68 -50 44 -91 42 -138 -6z"/>
<path d="M6046 6403 c-73 -11 -177 -95 -217 -177 -57 -115 -50 -188 31 -309
57 -85 104 -134 154 -161 l36 -19 62 27 c35 15 77 34 95 42 17 8 36 14 42 14
17 0 89 69 120 114 82 120 55 299 -59 395 -80 68 -158 89 -264 74z m126 -101
c48 -18 118 -69 118 -86 0 -5 7 -17 16 -27 26 -29 22 -154 -5 -201 -33 -55
-82 -88 -149 -98 -31 -6 -58 -10 -59 -10 -2 0 -3 -12 -3 -27 0 -39 -13 -55
-41 -51 -20 2 -25 10 -27 43 -3 33 -13 49 -62 97 -50 48 -60 64 -65 103 -18
119 39 215 152 255 64 23 70 23 125 2z"/>
<path d="M6047 6176 c-20 -16 -30 -35 -33 -62 -6 -53 13 -86 61 -103 35 -12
45 -11 78 2 43 19 61 55 53 106 -11 73 -101 105 -159 57z"/>
<path d="M3882 5874 c-17 -8 -5 -24 19 -24 11 0 22 -7 25 -15 4 -8 14 -15 23
-15 9 0 25 -6 36 -14 11 -7 31 -17 44 -21 45 -14 144 -79 190 -126 39 -39 101
-124 101 -139 0 -5 3 -10 8 -10 17 0 41 -124 48 -243 6 -117 4 -130 -12 -148
-50 -51 -55 -57 -46 -63 12 -7 68 38 84 67 16 30 22 226 9 288 -37 171 -155
319 -317 399 -49 24 -105 47 -124 51 -19 4 -44 10 -55 13 -11 3 -26 3 -33 0z"/>
<path d="M5110 5865 c-14 -7 -43 -21 -65 -30 -100 -43 -149 -73 -201 -124 -74
-72 -129 -146 -144 -196 -7 -22 -20 -59 -27 -81 -11 -30 -14 -75 -11 -160 3
-115 4 -121 35 -170 18 -28 45 -57 60 -64 16 -8 29 -15 31 -16 7 -5 -35 -62
-87 -120 -31 -33 -78 -89 -106 -122 -27 -34 -54 -62 -58 -62 -16 0 -70 47
-102 90 -19 25 -50 65 -69 90 -56 70 -76 103 -76 126 0 11 -11 35 -25 54 -23
32 -25 42 -25 149 0 158 -27 234 -112 319 -70 71 -99 90 -176 118 -58 20 -91
55 -101 107 -10 47 -31 46 -31 -1 0 -69 24 -109 83 -138 86 -43 170 -104 208
-153 60 -78 71 -113 77 -238 3 -63 9 -116 13 -119 15 -9 10 -44 -5 -44 -8 0
-17 4 -20 9 -5 8 -106 77 -186 126 -19 12 -65 41 -101 63 -36 23 -68 42 -72
42 -4 0 -37 19 -74 41 -69 43 -290 153 -353 177 -19 7 -59 24 -89 38 -92 43
-144 57 -207 57 -53 1 -66 -3 -95 -28 -19 -15 -49 -50 -67 -76 -36 -54 -48
-58 -106 -30 -25 12 -52 18 -68 14 -36 -7 -123 -94 -137 -136 -8 -24 -11 -191
-8 -568 4 -525 1 -579 -28 -579 -6 0 -36 7 -66 16 -30 9 -82 16 -117 15 -78
-1 -107 13 -151 76 -19 26 -49 62 -68 79 -18 17 -33 38 -33 46 0 17 33 32 90
44 88 17 193 114 230 212 40 106 13 209 -84 314 -61 67 -127 92 -227 85 -123
-8 -198 -60 -259 -178 -39 -77 -44 -114 -25 -188 17 -67 60 -131 128 -191 44
-39 44 -60 -1 -60 -69 -1 -184 -56 -207 -100 -9 -17 -20 -30 -25 -30 -23 0
-50 -80 -50 -147 0 -82 21 -133 82 -199 71 -77 101 -85 314 -82 l182 2 36 -27
c19 -15 56 -56 81 -91 65 -91 59 -120 -15 -74 -33 20 -47 21 -233 20 -218 -2
-260 4 -315 42 -72 50 -181 69 -253 44 -48 -16 -142 -95 -169 -143 -19 -32
-23 -52 -22 -113 1 -41 7 -92 14 -114 11 -38 81 -128 98 -128 5 0 26 -12 47
-26 35 -24 45 -26 120 -22 48 3 89 10 101 19 11 8 49 37 84 64 l63 50 158 3
c154 3 159 3 200 -22 23 -14 90 -74 150 -134 126 -129 165 -158 232 -173 62
-15 340 -18 499 -7 l119 9 62 -30 c69 -34 132 -91 188 -172 l37 -54 0 -118 c0
-99 -3 -119 -16 -124 -10 -4 -23 2 -33 13 -9 11 -33 29 -54 39 -35 18 -99 93
-115 133 -11 29 -79 126 -103 148 -38 34 -91 62 -137 73 -23 6 -61 16 -84 21
-28 8 -64 8 -112 1 -94 -13 -365 -17 -497 -6 -100 7 -109 7 -142 -14 -19 -12
-51 -40 -71 -62 -35 -37 -36 -43 -31 -90 8 -72 18 -91 69 -136 66 -58 99 -61
259 -23 26 7 96 10 156 8 121 -3 135 -10 167 -76 30 -65 84 -119 150 -153 68
-34 105 -38 223 -26 55 6 68 4 85 -12 12 -10 44 -34 72 -52 78 -52 169 -130
195 -168 20 -28 24 -50 30 -150 11 -186 15 -205 60 -246 62 -56 108 -46 165
36 l29 42 2 271 c6 665 5 748 -16 813 -31 97 -43 117 -138 231 -16 18 -63 56
-105 85 -43 28 -78 55 -78 60 0 31 250 -36 338 -90 142 -89 257 -230 296 -364
13 -47 16 -123 16 -491 1 -490 5 -526 61 -584 41 -42 89 -53 125 -29 15 9 29
26 31 36 3 10 9 19 13 19 5 0 14 19 22 43 11 34 13 135 11 532 -2 270 -5 504
-6 520 -7 59 -19 96 -71 223 -14 35 -26 72 -26 84 0 19 4 19 59 13 72 -8 90
-1 65 26 -9 10 -23 19 -29 19 -7 0 -21 12 -30 28 -24 37 -85 93 -155 142 -19
13 -37 27 -40 30 -15 19 -146 88 -290 152 -25 11 -53 25 -63 30 -10 5 -37 13
-60 18 -62 13 -126 30 -177 46 -25 8 -57 14 -71 14 -15 0 -46 7 -69 15 -23 8
-57 15 -75 15 -18 0 -52 7 -75 15 -23 8 -61 15 -84 15 -65 0 -156 33 -183 66
l-24 29 3 798 c3 793 3 797 23 797 11 -1 38 -9 60 -20 22 -11 45 -19 52 -20 6
0 24 -6 40 -14 15 -8 44 -21 63 -29 105 -45 235 -104 260 -118 8 -5 22 -12 30
-15 8 -3 22 -10 30 -15 8 -5 38 -20 65 -34 62 -32 156 -88 320 -188 67 -41
221 -166 282 -228 40 -41 97 -99 127 -129 l54 -55 6 -630 c4 -489 9 -641 19
-679 14 -50 29 -67 42 -47 11 19 49 12 89 -15 44 -30 79 -29 151 7 49 24 49
24 59 -8 5 -16 2 -25 -14 -33 -11 -6 -20 -19 -20 -28 0 -10 -4 -22 -8 -28 -4
-5 -14 -27 -21 -49 -7 -22 -19 -53 -26 -70 -6 -16 -18 -46 -25 -65 -11 -27
-15 -148 -17 -553 -3 -452 -2 -522 12 -549 8 -17 15 -36 15 -43 0 -6 15 -28
34 -48 37 -40 83 -50 106 -22 7 8 18 15 24 16 6 0 22 14 36 32 l25 31 11 521
10 520 26 57 c81 177 240 312 428 363 82 23 202 46 208 40 10 -9 -23 -38 -64
-55 -35 -15 -88 -58 -152 -122 -61 -61 -131 -182 -140 -242 -8 -53 -13 -782
-6 -933 6 -139 7 -144 36 -180 57 -73 113 -83 170 -30 41 37 45 59 52 248 3
69 10 117 19 135 23 44 171 174 265 233 52 33 53 33 125 23 100 -14 165 -3
214 36 60 47 111 108 129 152 26 63 48 72 177 67 62 -2 149 -12 194 -22 72
-17 87 -18 135 -6 62 16 79 29 113 87 48 81 24 164 -64 223 l-51 34 -163 -11
c-132 -9 -375 -9 -447 1 -44 5 -192 -17 -224 -34 -20 -10 -43 -19 -52 -19 -29
0 -105 -93 -145 -177 -32 -66 -51 -91 -95 -128 -59 -47 -97 -57 -112 -27 -18
34 -22 90 -12 162 9 60 17 82 47 122 21 26 40 48 44 48 4 0 29 22 57 49 27 27
65 54 83 59 42 14 219 33 231 26 5 -3 102 -6 217 -6 225 0 222 0 313 61 24 16
92 77 152 135 61 58 118 106 127 106 10 0 22 6 26 14 10 17 166 27 263 16 61
-7 75 -13 117 -47 26 -22 74 -53 107 -68 50 -24 67 -27 120 -23 129 11 228
106 249 238 14 95 -8 162 -76 234 -54 56 -85 71 -178 83 -49 6 -149 -22 -199
-55 -47 -31 -87 -38 -221 -40 -74 -1 -180 -4 -236 -7 -72 -5 -103 -4 -103 4 0
19 40 95 64 122 45 51 56 53 267 51 183 -2 197 -1 219 18 13 11 29 20 36 20
18 0 82 77 111 135 34 67 38 144 9 205 -28 60 -129 160 -162 160 -32 0 -144
31 -144 40 0 4 16 19 35 34 19 14 40 37 47 50 7 13 25 41 40 63 65 98 56 240
-23 334 -55 66 -90 89 -164 109 -70 19 -150 14 -201 -13 -44 -23 -140 -127
-158 -171 -25 -61 -23 -173 4 -227 58 -113 175 -199 271 -199 78 0 81 -12 18
-77 -30 -32 -68 -75 -83 -95 -36 -50 -55 -59 -134 -63 -106 -5 -171 -16 -183
-31 -6 -8 -19 -14 -29 -14 -27 0 -31 61 -29 530 0 234 0 474 0 534 l-1 109
-53 54 c-61 60 -97 68 -155 33 -44 -27 -60 -25 -74 8 -18 42 -75 108 -113 132
-28 18 -43 20 -78 15 -23 -4 -54 -14 -69 -21 -15 -8 -34 -14 -43 -14 -9 0 -50
-16 -91 -35 -41 -19 -78 -35 -83 -35 -10 0 -167 -67 -191 -81 -8 -5 -46 -25
-85 -45 -38 -19 -83 -44 -100 -55 -16 -10 -41 -24 -55 -29 -35 -16 -152 -84
-240 -142 -49 -33 -83 -48 -100 -46 -25 3 -25 4 -24 91 2 139 28 207 109 290
29 28 79 68 111 87 32 19 76 52 96 72 32 32 38 44 38 80 0 49 -9 88 -20 88 -4
0 -10 -24 -13 -54 -6 -63 -23 -95 -56 -103 -31 -8 -109 -49 -146 -78 -63 -49
-94 -82 -126 -140 -33 -58 -34 -64 -38 -189 -2 -105 -7 -134 -23 -162 -11 -18
-28 -36 -38 -39 -26 -8 -59 15 -67 45 -3 14 -9 30 -13 35 -14 19 7 257 28 317
34 97 104 183 203 250 60 41 168 98 185 98 7 0 14 7 18 15 3 8 16 15 30 15 30
0 42 15 20 24 -24 9 -56 6 -84 -9z m941 -1095 c-1 -426 -1 -791 -1 -810 0 -30
-5 -38 -32 -52 -40 -21 -102 -37 -188 -47 -61 -8 -94 -14 -200 -41 -25 -6 -65
-15 -90 -19 -44 -7 -57 -11 -166 -45 -29 -9 -60 -16 -70 -16 -11 0 -32 -7 -48
-15 -15 -8 -35 -15 -43 -15 -13 0 -246 -112 -298 -143 -74 -45 -113 -76 -194
-152 -50 -48 -96 -85 -102 -83 -8 3 -11 187 -9 673 l1 670 32 33 c18 18 62 59
99 90 38 31 70 64 73 73 3 9 31 36 63 60 31 23 59 46 62 50 6 8 199 139 205
139 2 0 21 12 42 26 21 14 47 30 58 35 11 5 34 18 50 28 30 20 329 169 395
198 72 31 96 41 150 62 87 34 103 42 140 62 19 10 43 18 53 16 17 -2 18 -36
18 -777z m-3259 638 c24 -12 49 -30 56 -40 10 -14 13 -172 12 -772 0 -499 3
-763 10 -781 6 -15 23 -37 37 -49 50 -39 102 -51 318 -76 50 -6 110 -15 135
-21 25 -5 74 -13 110 -18 84 -11 181 -31 200 -41 9 -4 31 -11 50 -14 19 -4 44
-11 55 -16 79 -33 122 -53 135 -60 8 -5 33 -19 54 -30 172 -93 325 -285 386
-483 18 -57 20 -106 25 -573 l5 -512 -27 -41 c-36 -56 -69 -56 -113 -1 l-32
40 3 513 c2 468 1 517 -16 565 -9 29 -21 55 -26 58 -5 3 -9 13 -9 23 0 35
-107 165 -192 236 -63 52 -198 125 -232 125 -8 0 -17 4 -20 9 -4 5 -25 12 -49
16 -23 4 -61 13 -85 21 -23 8 -60 14 -81 14 -21 0 -51 5 -67 10 -16 6 -72 14
-124 19 -239 24 -308 33 -348 47 -23 8 -50 14 -60 14 -22 1 -105 58 -129 90
-54 70 -53 45 -53 917 0 445 0 814 0 821 0 18 24 15 72 -10z m3560 -810 c-3
-787 -4 -835 -21 -873 -34 -72 -88 -114 -186 -143 -46 -13 -98 -19 -412 -51
-57 -6 -111 -15 -122 -21 -11 -5 -37 -10 -58 -10 -21 -1 -56 -7 -78 -15 -22
-8 -47 -15 -55 -15 -8 0 -28 -7 -44 -15 -15 -8 -35 -15 -43 -15 -8 0 -27 -6
-41 -14 -15 -8 -34 -17 -42 -21 -53 -21 -144 -88 -206 -150 -62 -63 -69 -73
-111 -157 -56 -113 -53 -74 -53 -647 0 -554 0 -548 -42 -593 -36 -37 -99 -12
-122 47 -5 11 -8 238 -7 505 1 482 6 566 37 637 8 17 14 35 14 41 0 34 119
214 180 272 76 72 214 170 240 170 4 0 21 6 37 14 93 47 237 89 368 107 39 5
83 14 99 19 16 6 45 10 65 10 32 0 76 6 261 39 138 24 174 46 203 128 16 44
17 116 17 785 l0 737 43 29 c23 17 51 31 62 31 20 1 20 -4 17 -831z m-4096
413 c47 -24 93 -66 117 -108 25 -46 23 -141 -5 -190 -29 -51 -84 -100 -121
-107 -173 -35 -308 86 -281 253 8 52 75 128 134 152 59 23 107 23 156 0z
m4725 -1 c97 -44 124 -87 123 -195 0 -92 -19 -134 -82 -182 -34 -26 -44 -28
-124 -28 l-87 0 -49 48 c-37 37 -54 63 -67 106 -16 53 -16 60 0 108 29 89 119
162 201 163 23 0 61 -9 85 -20z m-4908 -626 c57 -29 94 -79 115 -150 19 -67
22 -67 188 -55 205 15 189 33 197 -238 4 -118 9 -216 12 -219 2 -3 11 1 20 8
12 10 18 10 30 0 8 -7 15 -17 15 -23 0 -15 106 -143 138 -166 34 -24 116 -55
192 -71 61 -14 100 -30 100 -41 0 -9 -143 -19 -242 -16 -68 2 -81 5 -120 33
-43 31 -140 141 -158 179 -6 11 -16 28 -22 38 -11 15 -9 21 12 37 25 20 25 20
3 20 -19 0 -23 6 -23 30 0 44 -80 167 -151 235 l-62 58 -186 -6 c-204 -5 -232
0 -271 52 -11 14 -25 32 -32 40 -7 9 -12 45 -13 86 0 63 3 76 28 108 54 71
157 98 230 61z m5105 -1 c39 -24 63 -51 84 -92 35 -68 16 -143 -56 -216 l-39
-40 -201 3 c-230 4 -234 3 -306 -85 -19 -24 -40 -49 -46 -56 -6 -6 -24 -41
-41 -77 -54 -112 -49 -139 14 -78 18 17 36 28 40 24 5 -5 -15 -29 -43 -55 -28
-25 -59 -62 -69 -81 -25 -48 -163 -197 -194 -209 -51 -19 -144 -23 -175 -6
-20 11 -33 12 -40 5 -11 -11 -147 -14 -220 -4 -49 7 -64 24 -20 24 14 0 34 5
44 10 20 11 145 31 212 34 21 1 43 7 50 14 7 7 18 12 26 12 55 0 176 110 223
202 21 41 28 45 47 26 6 -6 14 -9 18 -6 3 4 8 98 11 211 5 172 9 207 23 225
17 21 21 21 186 12 175 -10 183 -8 184 32 0 52 53 127 120 171 34 22 132 22
168 0z m-5456 -609 c25 -4 55 -23 93 -56 31 -29 61 -48 69 -45 8 3 123 7 256
8 l242 2 38 -47 c22 -26 95 -105 163 -176 l123 -129 365 -3 c269 -2 369 -6
384 -15 11 -7 31 -18 45 -23 14 -6 39 -19 55 -30 17 -11 36 -23 44 -26 53 -26
171 -187 171 -234 0 -9 7 -25 15 -38 14 -19 15 -85 12 -538 l-4 -516 -28 -34
c-34 -41 -64 -43 -101 -9 l-27 25 5 184 c4 181 4 185 -18 208 -34 36 -74 70
-139 120 -33 26 -100 81 -150 122 -91 77 -113 87 -134 62 -21 -25 -99 -38
-152 -26 -86 21 -139 93 -148 204 l-6 69 -199 -2 c-192 -2 -200 -3 -235 -27
-43 -29 -128 -33 -166 -8 -23 15 -25 23 -25 90 0 63 3 74 18 75 36 3 157 -3
166 -9 6 -3 143 -5 305 -4 334 3 380 -3 440 -54 40 -35 91 -128 91 -167 0 -18
22 -37 97 -87 54 -36 102 -67 108 -69 18 -7 89 -65 108 -88 10 -13 25 -23 34
-23 13 0 14 28 10 220 l-4 219 -56 74 c-30 41 -68 86 -84 101 -45 42 -121 96
-135 96 -8 0 -18 4 -24 10 -5 5 -152 10 -357 12 l-349 3 -40 45 c-22 25 -79
86 -127 135 -47 50 -102 110 -121 132 l-35 42 -230 3 c-221 2 -230 1 -233 -17
-5 -23 -47 -82 -77 -107 -50 -42 -163 -34 -216 15 -78 73 -92 163 -37 248 49
74 106 98 200 83z m5777 -32 c47 -38 79 -97 80 -147 0 -53 -35 -121 -82 -159
-35 -28 -46 -31 -105 -31 -90 0 -142 34 -177 113 l-14 32 -224 0 -225 0 -98
-107 c-85 -93 -177 -192 -222 -239 -11 -11 -77 -14 -345 -14 -307 -1 -335 -2
-367 -20 -19 -10 -45 -24 -58 -30 -23 -10 -134 -117 -180 -174 -41 -50 -51
-107 -50 -296 0 -96 -1 -184 -3 -194 -8 -38 22 -26 83 31 76 72 124 108 204
156 64 39 78 59 88 131 8 59 83 128 157 144 34 7 200 13 446 16 339 3 392 2
397 -11 12 -29 6 -141 -6 -145 -7 -3 -55 -3 -107 -2 -68 2 -98 7 -111 19 -15
13 -49 16 -206 17 l-189 1 -10 -74 c-5 -41 -16 -85 -24 -99 -24 -41 -80 -90
-112 -97 -16 -3 -32 -10 -35 -14 -14 -24 -117 5 -137 38 -12 20 -46 15 -70
-11 -12 -13 -51 -48 -87 -77 -36 -30 -76 -64 -90 -76 -14 -12 -56 -47 -95 -78
-38 -31 -74 -67 -78 -78 -5 -12 -7 -97 -6 -189 2 -162 2 -168 -22 -202 -30
-44 -54 -45 -97 -5 l-33 31 3 551 c3 531 4 553 23 586 11 19 24 40 28 45 4 6
21 30 37 52 37 52 115 112 200 156 l65 33 360 5 360 5 74 80 c41 44 98 105
126 135 28 30 64 72 79 93 l28 37 267 0 267 0 47 44 c52 50 68 56 151 51 46
-3 66 -9 95 -33z m-4995 -18 c4 -11 1 -14 -11 -12 -9 2 -18 9 -21 16 -6 18 25
15 32 -4z"/>
<path d="M5768 5025 c-7 -7 -103 -44 -143 -55 -47 -13 -97 -31 -127 -46 -14
-8 -33 -14 -41 -14 -9 0 -28 -6 -44 -14 -15 -7 -45 -21 -66 -30 -20 -8 -54
-23 -75 -32 -20 -9 -50 -22 -67 -29 -90 -38 -246 -122 -290 -155 -92 -70 -113
-96 -120 -153 -4 -29 -16 -66 -26 -83 -16 -26 -19 -51 -19 -138 0 -108 9 -146
34 -146 23 0 27 29 25 165 l-2 130 39 28 c21 15 48 32 59 37 11 6 36 20 55 31
46 28 170 91 245 124 33 14 74 32 90 39 17 8 50 21 75 31 25 9 60 23 78 31 18
8 41 14 50 14 10 0 26 6 37 14 11 7 31 16 45 19 14 3 57 17 95 31 39 14 78 26
87 26 35 0 48 28 48 106 0 65 -2 74 -18 74 -10 0 -21 -2 -24 -5z"/>
<path d="M4787 4743 c-3 -10 -10 -33 -15 -50 -15 -46 5 -53 23 -9 17 40 20 76
6 76 -5 0 -11 -8 -14 -17z"/>
<path d="M5750 4656 c-50 -28 -149 -59 -237 -75 -58 -11 -71 -24 -76 -84 -2
-29 -8 -62 -12 -74 -7 -21 -4 -23 23 -23 17 0 43 6 59 14 48 24 172 62 238 75
63 11 65 14 65 102 0 87 -7 94 -60 65z"/>
<path d="M5209 4268 c-24 -12 -57 -27 -74 -33 -59 -25 -110 -48 -125 -57 -8
-4 -21 -10 -27 -13 -43 -17 -62 -28 -124 -73 -41 -30 -47 -39 -52 -80 -4 -26
-9 -57 -13 -69 -5 -19 -2 -23 18 -23 13 0 29 5 35 11 6 6 22 17 35 25 51 29
286 144 294 144 5 0 28 8 51 18 39 15 43 20 43 52 0 19 3 51 6 71 8 47 -9 54
-67 27z"/>
<path d="M5892 4200 c-30 -10 -66 -19 -80 -19 -31 1 -101 -17 -150 -37 -18 -8
-42 -14 -53 -14 -11 0 -30 -5 -42 -12 -12 -6 -35 -15 -52 -19 -67 -17 -238
-85 -337 -136 -14 -7 -31 -13 -37 -13 -15 0 -81 -43 -81 -53 0 -4 10 -12 23
-17 12 -5 34 -20 49 -33 30 -26 65 -26 103 -1 11 8 29 14 40 14 12 0 30 7 41
15 10 8 30 15 45 15 14 0 30 5 35 10 6 6 32 16 60 24 27 8 72 21 99 29 128 38
173 50 210 56 l40 6 3 50 c4 92 7 95 55 89 32 -5 52 -1 85 16 45 24 51 34 26
44 -21 8 -21 8 -82 -14z"/>
<path d="M4765 3867 c-13 -50 50 -143 88 -132 12 4 31 9 42 12 42 11 165 104
165 125 0 31 -146 -31 -198 -84 -15 -15 -32 -28 -38 -28 -13 0 -27 57 -18 72
10 16 -5 58 -21 58 -8 0 -17 -10 -20 -23z"/>
<path d="M2112 4887 c-27 -28 -37 -94 -20 -126 7 -13 30 -33 50 -43 36 -19 37
-19 77 1 65 34 77 120 23 169 -35 31 -100 31 -130 -1z"/>
<path d="M6832 4877 c-51 -53 -40 -117 26 -154 76 -44 165 38 131 120 -31 75
-103 90 -157 34z"/>
<path d="M1949 4277 c-27 -18 -35 -30 -37 -61 -3 -33 1 -43 25 -62 42 -35 94
-32 127 7 31 37 32 42 6 84 -16 26 -62 55 -85 55 -1 0 -17 -10 -36 -23z"/>
<path d="M7058 4284 c-80 -43 -58 -154 30 -154 87 0 118 116 41 155 -34 18
-37 18 -71 -1z"/>
<path d="M1629 3654 c-18 -20 -24 -37 -24 -73 0 -60 17 -81 65 -81 31 0 42 6
64 34 34 45 33 76 -3 115 -36 38 -69 40 -102 5z"/>
<path d="M3030 2790 c-46 -46 -8 -130 59 -130 92 0 111 78 31 133 -33 23 -66
21 -90 -3z"/>
<path d="M7341 3654 c-24 -20 -31 -34 -31 -62 0 -42 5 -52 40 -75 51 -35 108
-5 117 62 5 35 2 44 -25 71 -37 37 -61 38 -101 4z"/>
<path d="M5933 2775 c-34 -34 -34 -34 -18 -65 15 -28 49 -50 78 -50 7 0 25 11
40 25 33 31 36 76 7 105 -30 30 -67 25 -107 -15z"/>
<path d="M3287 5023 c-3 -5 -2 -44 0 -88 l5 -80 62 -19 c33 -10 75 -24 93 -32
17 -8 36 -14 42 -14 6 0 25 -6 43 -14 18 -8 49 -21 70 -30 20 -9 41 -16 46
-16 6 0 23 -6 39 -14 15 -7 44 -20 63 -29 72 -31 247 -118 305 -152 33 -19 67
-38 75 -42 32 -17 90 -59 94 -68 2 -6 0 -44 -4 -85 -7 -76 4 -198 19 -213 5
-5 16 13 25 39 17 49 14 156 -5 219 -5 17 -10 60 -10 95 -1 82 -6 100 -27 100
-9 0 -36 18 -59 41 -49 47 -139 109 -158 109 -7 0 -18 7 -25 15 -7 8 -17 15
-23 15 -5 0 -46 17 -91 39 -100 47 -157 73 -216 95 -25 10 -58 24 -73 32 -16
8 -36 14 -45 14 -9 0 -26 7 -36 15 -11 8 -28 15 -37 15 -10 0 -32 8 -51 17
-18 9 -45 22 -60 30 -29 15 -55 17 -61 6z"/>
<path d="M4100 4868 c0 -7 23 -37 50 -66 28 -29 50 -59 50 -66 0 -8 6 -19 14
-25 7 -6 17 -26 20 -44 6 -28 8 -30 17 -14 7 12 7 35 -2 73 -11 48 -20 62 -68
105 -54 49 -81 61 -81 37z"/>
<path d="M3286 4662 c-9 -15 -4 -147 6 -159 6 -7 24 -13 40 -13 16 0 45 -7 65
-15 19 -8 44 -15 54 -15 18 0 48 -11 137 -52 64 -29 72 -22 72 65 l0 74 -42
15 c-24 9 -70 23 -103 33 -76 22 -132 43 -168 61 -32 16 -53 18 -61 6z"/>
<path d="M3800 4209 c0 -61 3 -73 23 -90 12 -10 28 -18 36 -19 8 0 60 -23 115
-51 108 -54 119 -60 181 -99 22 -14 48 -29 58 -33 13 -5 17 -18 17 -67 0 -62
11 -76 31 -39 8 16 8 33 -1 68 -7 25 -12 71 -11 103 1 54 -1 58 -36 85 -21 17
-45 33 -53 36 -8 4 -28 16 -45 27 -29 19 -34 22 -65 34 -8 3 -24 11 -35 18
-40 23 -50 28 -65 34 -8 3 -40 19 -71 35 -31 16 -62 29 -68 29 -7 0 -11 -26
-11 -71z"/>
<path d="M3288 4168 c-3 -7 -3 -46 0 -85 3 -57 8 -73 20 -73 15 0 101 -23 157
-42 17 -5 44 -13 60 -18 46 -13 97 -31 127 -46 14 -8 33 -14 41 -14 9 0 28 -6
44 -14 15 -8 44 -21 63 -30 19 -8 56 -24 81 -35 64 -30 88 -27 100 9 6 17 16
30 23 30 7 0 33 -20 58 -44 48 -46 94 -61 136 -45 28 11 20 29 -14 29 -13 0
-24 4 -24 9 0 11 -57 46 -91 56 -13 4 -42 20 -64 34 -22 15 -60 37 -85 50 -25
12 -65 33 -89 47 -24 13 -50 24 -56 24 -7 0 -18 6 -24 14 -6 8 -22 16 -34 19
-12 3 -47 15 -77 27 -30 12 -68 25 -85 30 -31 9 -83 26 -125 42 -22 9 -126 38
-134 38 -2 0 -6 -6 -8 -12z"/>
<path d="M4565 1544 c-27 -7 -69 -18 -91 -22 -85 -18 -255 -150 -294 -228 -8
-16 -19 -36 -25 -44 -39 -52 -59 -205 -40 -310 12 -69 61 -158 126 -229 33
-35 59 -70 59 -78 0 -7 -19 -26 -42 -41 -24 -15 -75 -60 -114 -99 -39 -40 -79
-73 -88 -73 -10 0 -44 22 -75 49 -45 39 -68 51 -116 61 -33 7 -63 17 -67 23
-3 6 7 34 24 64 29 51 30 56 26 165 -3 105 -5 116 -32 155 -32 49 -30 68 11
76 105 20 149 46 198 117 28 41 30 47 28 142 -2 97 -3 102 -37 153 -24 37 -48
59 -83 76 -48 24 -50 24 -424 26 -408 2 -401 3 -462 -55 -16 -15 -39 -45 -52
-67 -23 -40 -24 -44 -30 -445 -9 -515 -8 -510 -35 -510 -14 0 -45 67 -59 125
-7 28 -18 57 -26 65 -7 8 -18 33 -25 55 -7 22 -19 56 -26 75 -8 19 -29 80 -48
135 -18 55 -50 145 -70 200 -21 55 -41 115 -46 134 -5 19 -23 66 -40 105 -25
58 -41 80 -88 117 -58 47 -83 57 -163 66 -73 8 -117 -10 -184 -75 -56 -53 -65
-68 -113 -188 -29 -71 -52 -136 -52 -144 0 -8 -6 -26 -13 -40 -7 -14 -21 -52
-31 -85 -9 -33 -30 -87 -45 -120 -16 -33 -31 -74 -34 -91 -3 -17 -26 -82 -51
-145 -24 -63 -61 -157 -82 -210 -39 -100 -59 -137 -70 -126 -12 12 -24 377
-21 631 2 138 1 300 -3 359 l-7 109 -44 45 c-56 57 -68 63 -142 73 -96 14
-135 0 -215 -79 -59 -58 -200 -247 -227 -305 -22 -46 -110 -156 -125 -156 -21
0 -69 52 -109 118 -17 30 -54 82 -80 116 -27 34 -56 77 -65 94 -24 47 -155
175 -202 197 -26 12 -61 19 -105 19 -80 0 -116 -19 -176 -92 l-43 -53 -2 -492
c-1 -271 -2 -532 -3 -582 -1 -50 4 -109 11 -131 16 -58 70 -122 127 -150 40
-21 58 -24 124 -21 l77 4 59 53 c72 65 85 94 92 207 4 48 8 103 11 121 5 30 6
31 29 20 13 -7 39 -34 57 -60 34 -48 107 -116 144 -136 12 -6 38 -9 58 -5 34
5 74 39 194 166 50 51 59 38 67 -95 6 -99 24 -149 68 -197 62 -65 93 -78 182
-77 70 1 86 5 124 30 24 15 64 48 88 73 l44 46 57 -54 c100 -95 108 -99 218
-99 77 0 101 4 116 17 16 14 27 15 98 5 98 -14 126 -4 193 67 68 72 67 112 -4
249 -57 109 -65 169 -28 216 26 33 37 33 50 -1 34 -84 53 -138 81 -223 16 -52
41 -117 53 -145 27 -57 90 -135 110 -135 7 0 27 -11 43 -25 27 -23 36 -24 118
-21 55 2 89 7 92 14 2 7 10 12 18 12 8 0 34 18 58 40 24 22 50 40 59 40 8 0
30 -14 47 -31 17 -18 47 -43 67 -56 l36 -24 371 3 c358 3 372 4 411 25 59 31
110 92 145 171 14 32 31 28 95 -24 73 -60 149 -111 178 -120 12 -3 42 -17 67
-30 43 -23 52 -24 277 -24 147 0 234 4 238 10 4 6 32 23 63 39 121 61 217 173
264 309 27 77 30 95 26 177 -8 155 -55 239 -213 374 l-50 43 35 27 c19 14 67
59 106 99 39 39 78 72 86 72 9 0 43 -26 78 -59 66 -62 88 -71 185 -71 41 0 56
-5 81 -28 l31 -28 -4 -328 c-5 -467 4 -514 118 -587 44 -28 64 -34 121 -37
108 -6 131 2 197 68 74 74 71 57 73 523 1 312 3 361 17 378 17 21 75 38 131
39 43 0 91 28 151 89 l46 47 5 97 c4 72 2 104 -9 124 -18 36 -100 121 -133
138 -34 17 -840 20 -909 3 -36 -9 -59 -25 -103 -72 -32 -33 -58 -64 -58 -70 0
-6 -4 -18 -10 -26 -7 -11 -20 -4 -67 36 -100 87 -208 138 -347 163 -81 15
-200 13 -261 -5z m230 -109 c79 -9 190 -46 260 -88 64 -39 105 -71 105 -83 0
-8 -17 -31 -37 -53 -56 -57 -76 -82 -102 -123 -12 -21 -28 -38 -34 -38 -7 0
-30 16 -51 35 -68 60 -133 84 -249 92 -79 5 -117 -6 -164 -51 -27 -25 -33 -37
-33 -72 0 -37 5 -46 39 -73 21 -17 46 -31 54 -31 8 0 28 -7 43 -15 16 -8 43
-15 59 -15 17 -1 41 -7 55 -15 14 -8 39 -14 57 -15 17 0 34 -4 38 -9 3 -5 20
-13 38 -16 62 -14 159 -69 197 -113 73 -82 84 -113 84 -237 0 -84 -4 -117 -17
-140 -9 -16 -17 -34 -17 -38 0 -15 -45 -72 -93 -119 -111 -107 -331 -162 -477
-120 -25 7 -70 21 -100 29 -80 24 -160 71 -245 142 -41 35 -75 66 -75 69 0 4
16 21 37 37 49 41 143 137 143 147 0 19 26 4 82 -47 94 -87 180 -124 291 -125
76 0 113 14 165 63 28 27 32 37 32 82 0 55 -10 69 -71 100 -35 19 -112 42
-179 55 -160 31 -291 94 -348 168 -51 67 -62 105 -62 207 0 89 9 131 41 185 5
8 13 25 19 37 14 33 102 115 146 137 22 10 48 23 59 29 25 14 180 36 220 31
17 -1 57 -6 90 -9z m-3279 -16 c11 -19 10 -1289 -1 -1290 -64 -3 -248 1 -253
6 -11 10 -2 521 10 622 6 51 8 96 4 100 -13 13 -39 -13 -69 -68 -16 -30 -77
-125 -135 -212 -138 -204 -138 -204 -164 -255 -30 -57 -54 -54 -88 13 -14 28
-70 118 -126 201 -55 83 -104 157 -107 165 -4 8 -16 28 -27 44 -10 17 -29 49
-42 73 -51 98 -54 77 -48 -318 3 -195 2 -359 -1 -364 -4 -5 -65 -9 -136 -9
l-128 -1 -3 642 c-2 510 0 642 10 643 127 11 228 -3 228 -32 0 -8 35 -60 143
-214 115 -163 172 -246 182 -263 6 -9 23 -36 38 -59 15 -24 27 -46 27 -50 0
-5 11 -21 23 -37 l23 -29 22 37 c12 21 22 39 22 40 0 5 130 198 195 291 51 72
182 268 201 301 9 15 28 20 95 25 46 3 87 6 91 7 4 1 10 -3 14 -9z m930 -12
c3 -2 14 -31 25 -63 11 -32 23 -68 28 -79 13 -33 32 -88 41 -120 5 -16 18 -55
30 -85 12 -30 24 -66 27 -80 3 -14 12 -34 19 -45 8 -11 14 -29 14 -40 0 -12 7
-30 15 -41 8 -10 15 -27 15 -37 0 -11 6 -33 14 -50 8 -18 16 -41 19 -52 3 -11
15 -45 27 -75 12 -30 25 -70 30 -89 5 -18 13 -38 19 -44 6 -6 11 -20 11 -32 0
-11 7 -33 15 -49 8 -15 15 -36 15 -45 0 -10 7 -26 15 -37 8 -10 15 -27 15 -36
0 -17 19 -67 46 -121 31 -63 29 -64 -123 -59 -76 2 -144 9 -150 14 -7 6 -13
24 -13 40 0 17 -6 42 -14 56 -7 15 -21 54 -31 87 -9 33 -23 76 -30 95 -29 82
-37 107 -45 135 -11 39 -29 91 -46 133 -8 18 -14 41 -14 52 0 11 -6 34 -14 52
-23 54 -46 143 -46 177 0 35 -22 50 -45 31 -8 -7 -15 -23 -15 -35 0 -23 -24
-110 -42 -155 -6 -14 -14 -38 -18 -55 -5 -16 -18 -55 -30 -85 -12 -30 -26 -68
-30 -85 -5 -16 -16 -50 -25 -75 -20 -53 -15 -84 21 -136 14 -22 30 -48 35 -59
5 -11 18 -33 29 -50 11 -16 23 -37 27 -45 4 -8 15 -27 26 -42 11 -14 16 -31
13 -37 -4 -7 -41 -11 -91 -11 l-85 0 -22 35 c-28 42 -44 44 -53 8 -3 -15 -12
-31 -18 -35 -7 -4 -61 -8 -120 -8 -60 0 -117 -5 -127 -10 -15 -8 -21 -6 -30
10 -8 15 -6 28 9 57 31 61 51 112 51 131 0 10 5 23 11 29 6 6 14 26 19 44 11
46 30 98 46 131 8 14 14 34 14 45 0 10 7 27 15 37 8 11 15 29 15 40 0 12 7 30
15 40 8 11 15 29 15 40 0 12 7 30 15 40 8 11 15 29 15 41 0 11 6 29 14 40 7
11 16 31 19 45 3 14 15 50 27 80 12 30 25 69 30 85 5 17 18 55 30 85 12 30 24
64 27 75 3 11 11 34 18 50 7 17 21 56 31 87 10 32 24 59 33 60 22 5 212 0 217
-5z m1500 -137 l0 -141 -293 2 c-162 1 -297 -1 -300 -5 -6 -6 -7 -216 -1 -221
2 -1 89 1 193 5 105 5 192 6 194 4 2 -1 3 -67 3 -144 0 -77 -1 -143 -3 -145
-2 -2 -87 0 -189 4 -102 4 -188 5 -193 1 -12 -10 -14 -220 -2 -220 15 -1 503
3 550 4 l40 1 2 -137 c1 -76 -2 -140 -7 -143 -10 -6 -850 -8 -857 -2 -5 6 -5
1266 1 1275 2 4 197 6 433 5 l428 -2 1 -141z m2391 140 c8 0 11 -39 11 -140
l-1 -141 -166 1 c-91 0 -172 1 -179 0 -11 0 -13 -92 -11 -495 1 -273 -1 -498
-4 -501 -3 -3 -63 -6 -134 -6 l-128 -1 0 502 c0 327 -3 501 -10 502 -5 0 -88
0 -182 -1 l-173 -1 0 139 c0 76 2 141 4 143 3 3 845 2 973 -1z"/>
<path d="M6654 1520 c-32 -10 -85 -67 -125 -134 -22 -37 -22 -38 -20 -594 1
-306 4 -579 8 -606 5 -41 14 -57 52 -96 91 -93 79 -91 503 -90 l371 2 56 45
c31 25 69 64 84 87 16 22 33 41 38 41 12 0 99 -85 99 -97 0 -4 25 -25 57 -44
55 -36 58 -37 130 -31 86 6 144 35 192 95 42 54 51 82 51 161 0 81 15 103 56
81 24 -13 76 -86 101 -143 16 -36 123 -140 176 -171 37 -22 52 -24 132 -22 80
3 95 6 136 32 122 76 131 132 50 294 -52 103 -81 173 -81 197 0 6 25 49 57 95
68 100 113 219 113 299 0 113 -20 217 -57 286 -18 36 -45 79 -58 95 -14 16
-25 33 -25 37 0 12 -112 96 -173 131 -29 16 -65 30 -80 30 -14 0 -53 7 -88 16
-52 13 -105 15 -328 11 -146 -3 -275 -9 -286 -13 -37 -14 -97 -69 -121 -110
-28 -48 -28 -42 -25 -591 3 -420 -6 -507 -41 -423 -20 45 -128 127 -180 135
-115 17 -121 22 -84 66 34 40 44 87 42 194 -2 82 -5 96 -35 149 -19 35 -29 62
-24 67 5 5 34 12 64 16 70 8 93 20 159 88 l55 56 0 102 c0 99 -1 103 -32 147
-18 25 -56 61 -84 80 l-50 34 -377 3 c-221 1 -390 -2 -408 -7z m829 -110 c4 0
7 -63 7 -140 l0 -141 -296 1 c-163 1 -298 -1 -301 -4 -8 -8 -6 -203 2 -216 3
-6 29 -8 58 -5 29 2 114 7 190 10 l137 6 0 -145 c0 -80 -3 -147 -8 -150 -4 -2
-88 -1 -187 3 -99 4 -184 4 -189 0 -9 -8 -12 -206 -3 -215 4 -5 331 -5 557 0
l44 1 1 -138 c0 -77 -3 -141 -7 -143 -4 -3 -200 -5 -435 -5 l-428 -1 -3 634
c-1 348 0 638 2 643 3 8 603 11 859 5z m783 -3 c168 -3 204 -6 224 -20 14 -9
30 -17 38 -17 22 0 118 -76 154 -122 115 -147 129 -359 34 -523 -36 -63 -90
-120 -138 -147 -44 -25 -45 -31 -17 -61 11 -12 37 -51 57 -87 20 -36 42 -74
49 -85 6 -11 21 -40 34 -65 26 -51 60 -103 72 -108 4 -2 7 -17 7 -34 0 -27 -2
-30 -22 -23 -13 4 -80 10 -151 12 l-127 5 -28 46 c-40 69 -44 76 -76 134 -16
29 -46 84 -65 123 l-36 69 -120 1 -120 0 0 -182 c0 -100 -3 -184 -7 -188 -3
-4 -64 -7 -135 -7 l-128 -1 -3 634 c-1 349 0 639 2 645 2 6 55 9 152 7 82 -1
239 -4 350 -6z m-626 -1201 c-14 -14 -24 0 -16 21 6 15 8 15 16 3 6 -9 5 -19
0 -24z"/>
<path d="M8038 1134 c-3 -5 -5 -88 -4 -184 l1 -175 164 4 c104 2 176 8 195 16
42 18 79 61 100 113 15 41 15 47 -1 98 -10 33 -30 68 -52 89 l-34 35 -146 0
c-80 0 -162 3 -182 6 -20 4 -39 2 -41 -2z m312 -180 c0 -30 -27 -44 -87 -44
-118 0 -123 87 -5 100 54 6 92 -17 92 -56z"/>
</g>
</svg>
