<svg xmlns="http://www.w3.org/2000/svg" version="1.0" viewBox="0 0 900 717" width="32" height="32"><rect width="100%" height="100%" fill="#1b1f23"/><g fill="none" stroke="#fff" stroke-width="15"><path stroke-width="1.5" d="M440.8 1.8c-.3 1.2-2.8 2.7-6.9 4.2-9.7 3.5-19.1 9.4-26.1 16.4-12.1 12.1-13.1 13.6-17.9 27.5-4.2 12.4-4.1 23.1.5 36.8 8.2 24.9 24 40 48.6 46.4 10.8 2.8 30.3 1.5 39.7-2.7 1.7-.8 3.4-1.4 3.8-1.4 1.5 0 14.4-9.7 19.8-14.9 6.1-5.9 13-17.1 14.2-23.1.4-1.9 1.8-6.7 3-10.5 2.9-8.6 2.6-20.2-.6-31-3.4-11.2-11.2-22.8-20.7-30.8C493.2 14.5 475 4 472.7 4c-1.8 0-4-2.4-3-3.3.3-.4-5.9-.7-13.9-.7-13.3 0-14.6.2-15 1.8zM466 14.6c6.9 1.5 12.1 3.3 16 5.5.8.5 2.5 1.4 3.8 1.9 4.6 2 16.6 15.3 19.8 22 5.2 10.8 6.6 16.6 6.1 25-.5 7.8-2.5 17.4-4.5 22.3-.7 1.6-1.2 3-1.2 3.3 0 .2-1.5 2.7-3.2 5.6-7.1 11.5-19.4 20.4-34.8 25.2-4.1 1.3-7.9 1.6-15 1.3-16.3-.7-27.5-5.4-38.6-16.2-3.9-3.9-7.4-7.7-7.8-8.5-.3-.8-1.7-3.5-3.1-5.9s-2.5-4.9-2.5-5.5-.8-2.5-1.7-4.1c-1.3-2.4-1.7-5.9-1.7-17l-.1-14 3.9-8c3-6.2 5.7-9.9 12.1-16.2 4.5-4.5 9.3-8.7 10.6-9.3 1.3-.5 3.1-1.4 3.9-1.9 5.8-3.5 17.9-6.9 25-7 3-.1 8.9.6 13 1.5z"/><path stroke-width="1.5" d="M452.5 34.6c-9.8 2-13.2 2.9-14.6 4.1-.8.7-1.9 1.3-2.3 1.3-1.6 0-9.5 6.8-12.6 10.8-5.9 7.7-10 19.9-8.6 25.8.4 1.6 1.1 4.5 1.5 6.4 2.5 10.3 10.6 19.9 21.9 25.7 5.7 3 7 3.3 15.7 3.3 12.5 0 20.6-3.2 29.1-11.5 8.1-7.9 11.4-15.3 11.4-25.7 0-15.4-8.6-29.5-22-36-3.4-1.7-15-4.9-16.6-4.7-.5.1-1.8.3-2.9.5zm8.3 19.6c18.1 8.7 18.4 30.2.5 37.9-5.6 2.4-7.9 2.4-13.1-.1-13.8-6.7-17.4-23.2-7-32.6 4-3.6 11-7.3 13.7-7.4.8 0 3.5 1 5.9 2.2zM340.1 43.7c-5.8 3-13.6 10.9-15.7 16-3.6 8.4-.3 20 8 28.4 7.5 7.6 8.8 10.5 9.2 21.3.8 17.8 1.3 24.5 2.2 26.3.5 1 2.4 4.7 4.1 8.3 3.9 8 12.3 18.5 17.6 22.2 4.4 3 11.5 4.8 11.5 2.9 0-.6-.8-1.5-1.7-1.8-2.6-1-9.6-8.6-14-15.2-2.1-3.1-4-5.8-4.3-6.1-1.6-1.5-3.8-6.1-5.2-10.5-1.3-4-1.5-9.2-1.3-26.8l.3-21.8-4.4-1.1c-2.3-.7-5.8-2.6-7.7-4.4-9.4-8.5-9-19.4 1.1-27 3.2-2.5 4.6-2.9 10.2-2.9s7 .4 10.3 2.9c4.4 3.4 7.7 9.2 7.7 13.6 0 3.3-2.1 8.2-4.9 11.3-1.4 1.6-1.5 4.6-1.3 22l.3 20.2 3.5 3.3c5.3 5.1 3.6 8.1-3.4 5.8-2.7-.9-4.2 1.8-2.4 4.3.7.9 1.7 2.6 2.2 3.9.6 1.3 1.6 2.9 2.3 3.6.6.7 2.8 3.3 4.7 5.9 1.9 2.5 4 4.7 4.7 4.7 2.2 0 4.3 3.1 4.3 6.4 0 1.8.6 4.1 1.4 5.2 1.4 1.8 1.5 1.8 2.5-.9 1.3-3.3.1-10-2.3-12.6-.9-1-1.6-2.5-1.6-3.4 0-1-1.3-3.1-3-4.9-3.4-3.5-3.9-7.5-1.5-11.2 1.4-2 1.3-2.8-.6-8.2-1.9-5.3-2-7.5-1.6-21.9.4-14.1.8-16.8 3.1-22.9 3.6-9.4 3.4-17.1-.6-22.3-.7-.9-3.8-4.2-6.9-7.3-8.6-8.6-17.1-10.3-26.8-5.3zM552.8 42.4c-5.9 1.6-12.6 7-16.9 13.8-3 4.6-3.4 6-3.3 11.3.1 3.5 1.2 8.9 2.6 13 2.2 6.1 2.5 8.8 2.6 21.5.1 11.8-.2 15.5-1.8 20.4-1.1 3.3-2 8.1-2 10.7 0 3-.9 6.9-2.4 10.1-4.9 10.9-6.6 18.9-5 23.2 1 2.6 2.4.7 2.4-3.2 0-2.3.7-4.4 1.8-5.4 2.8-2.7 4-4.4 7.2-10.3 4.8-8.9 5.8-12.5 4.3-15.5-2-3.9-1.5-6.7 1.6-9.7l3-2.8.3-19.8c.2-12.7-.1-20-.7-20.5-4.7-3.3-6-13.6-2.4-19.6 3.1-5.3 8.2-8 15.5-8 5.6-.1 6.5.2 10.6 3.6 6.1 5 8.3 11 6.3 16.9-2.2 6.1-5 9.1-12.3 12.9l-6.6 3.5-.1 23.5v23.5l-3.3 5.8c-3.9 7-9.4 14.5-15.1 20.7-5.7 6.1-6.7 8-4.4 8 5 0 14.9-9.1 22.4-20.6 7.1-10.8 7.9-13.9 9-32.4 1-15.7 2.7-24 5.1-24 1.9 0 10.2-9.9 12.7-15.3 2.5-5.3 2.7-6.5 1.9-11.8-1-7.4-2-9.4-8-15.7-6.7-7.1-16.5-10.1-25-7.8z"/><path stroke-width="1.5" d="M346.4 62.8c-3.8 3.2-4.5 5.5-2.6 9.3 1.5 3.1 2.2 3.4 6.4 3.7 4.6.3 4.9.2 6.4-3.2 1.4-2.9 1.5-4 .5-6.4-1.2-2.8-4.7-5.2-7.4-5.2-.7.1-2.1.9-3.3 1.8zM555.7 62.1c-.9.5-2.4 2.3-3.2 3.8-1.3 2.5-1.2 3.2.4 6.2 4 7.4 12.3 5.5 12.9-3 .3-3.4-.1-4.6-2-6.1-2.6-2.1-5.4-2.5-8.1-.9zM288.1 77.9c-2.9 1.1-6 2.6-7 3.3-5.4 4-8.7 8.1-11.7 14.3-3.6 7.4-3.8 11.5-1.2 20.5 2.4 8.1 13.6 20 18.9 20 .8 0 2.3.6 3.4 1.4 3.3 2.2 14.4 5.8 16.3 5.2 5.9-1.9 19.9-20.3 22.1-29.2 3.4-13.2-3-25.4-17.7-34-6-3.6-15.8-4.2-23.1-1.5zm15.6 8.9c17.8 5.9 21.9 24.4 8.3 37.7-2.7 2.6-4 4.8-4 6.5 0 3.2-3.3 6.5-5.5 5.7-.9-.4-1.5-1.9-1.5-3.7 0-1.7-.6-3.2-1.2-3.4-.7-.2-3.8-.9-6.7-1.6-5.9-1.4-6.6-1.8-11.4-6.7-3.2-3.4-6.5-10.3-6.6-14-.2-4.9 5-13.1 11.1-17.8 1.4-1.1 9.7-4.3 11.3-4.4.6 0 3.3.7 6.2 1.7z"/><path stroke-width="1.5" d="M290.7 100.7c-4.2 4.2-4.8 7.7-1.7 11.5 3.1 4 7.5 5.4 11.8 3.8 4.8-1.7 7.1-4.7 7.2-9.1 0-3-.7-4.3-3.5-6.8-5-4.4-9.1-4.2-13.8.6zM604.6 76.7c-7.3 1.1-17.7 9.5-21.7 17.7-5.7 11.5-5 18.8 3.1 30.9 5.7 8.5 10.4 13.4 15.4 16.1l3.6 1.9 6.2-2.7c3.5-1.5 7.7-3.4 9.5-4.2 1.7-.8 3.6-1.4 4.2-1.4 1.7 0 8.9-6.9 12-11.4 8.2-12 5.5-29.9-5.9-39.5-8-6.8-15.8-8.9-26.4-7.4zm12.6 10.1c4.8 1.8 11.8 6.9 11.8 8.6 0 .5.7 1.7 1.6 2.7 2.6 2.9 2.2 15.4-.5 20.1-3.3 5.5-8.2 8.8-14.9 9.8-3.1.6-5.8 1-5.9 1-.2 0-.3 1.2-.3 2.7 0 3.9-1.3 5.5-4.1 5.1-2-.2-2.5-1-2.7-4.3-.3-3.3-1.3-4.9-6.2-9.7-5-4.8-6-6.4-6.5-10.3-1.8-11.9 3.9-21.5 15.2-25.5 6.4-2.3 7-2.3 12.5-.2z"/><path stroke-width="1.5" d="M604.7 99.4c-2 1.6-3 3.5-3.3 6.2-.6 5.3 1.3 8.6 6.1 10.3 3.5 1.2 4.5 1.1 7.8-.2 4.3-1.9 6.1-5.5 5.3-10.6-1.1-7.3-10.1-10.5-15.9-5.7zM388.2 129.6c-1.7.8-.5 2.4 1.9 2.4 1.1 0 2.2.7 2.5 1.5.4.8 1.4 1.5 2.3 1.5s2.5.6 3.6 1.4c1.1.7 3.1 1.7 4.4 2.1 4.5 1.4 14.4 7.9 19 12.6 3.9 3.9 10.1 12.4 10.1 13.9 0 .5.3 1 .8 1 1.7 0 4.1 12.4 4.8 24.3.6 11.7.4 13-1.2 14.8-5 5.1-5.5 5.7-4.6 6.3 1.2.7 6.8-3.8 8.4-6.7 1.6-3 2.2-22.6.9-28.8-3.7-17.1-15.5-31.9-31.7-39.9-4.9-2.4-10.5-4.7-12.4-5.1s-4.4-1-5.5-1.3-2.6-.3-3.3 0z"/><path stroke-width="1.5" d="M511 130.5c-1.4.7-4.3 2.1-6.5 3-10 4.3-14.9 7.3-20.1 12.4-7.4 7.2-12.9 14.6-14.4 19.6-.7 2.2-2 5.9-2.7 8.1-1.1 3-1.4 7.5-1.1 16 .3 11.5.4 12.1 3.5 17 1.8 2.8 4.5 5.7 6 6.4 1.6.8 2.9 1.5 3.1 1.6.7.5-3.5 6.2-8.7 12-3.1 3.3-7.8 8.9-10.6 12.2-2.7 3.4-5.4 6.2-5.8 6.2-1.6 0-7-4.7-10.2-9-1.9-2.5-5-6.5-6.9-9-5.6-7-7.6-10.3-7.6-12.6 0-1.1-1.1-3.5-2.5-5.4-2.3-3.2-2.5-4.2-2.5-14.9 0-15.8-2.7-23.4-11.2-31.9-7-7.1-9.9-9-17.6-11.8-5.8-2-9.1-5.5-10.1-10.7-1-4.7-3.1-4.6-3.1.1 0 6.9 2.4 10.9 8.3 13.8 8.6 4.3 17 10.4 20.8 15.3 6 7.8 7.1 11.3 7.7 23.8.3 6.3.9 11.6 1.3 11.9 1.5.9 1 4.4-.5 4.4-.8 0-1.7-.4-2-.9-.5-.8-10.6-7.7-18.6-12.6-1.9-1.2-6.5-4.1-10.1-6.3-3.6-2.3-6.8-4.2-7.2-4.2s-3.7-1.9-7.4-4.1c-6.9-4.3-29-15.3-35.3-17.7-1.9-.7-5.9-2.4-8.9-3.8-9.2-4.3-14.4-5.7-20.7-5.7-5.3-.1-6.6.3-9.5 2.8-1.9 1.5-4.9 5-6.7 7.6-3.6 5.4-4.8 5.8-10.6 3-2.5-1.2-5.2-1.8-6.8-1.4-3.6.7-12.3 9.4-13.7 13.6-.8 2.4-1.1 19.1-.8 56.8.4 52.5.1 57.9-2.8 57.9-.6 0-3.6-.7-6.6-1.6s-8.2-1.6-11.7-1.5c-7.8.1-10.7-1.3-15.1-7.6-1.9-2.6-4.9-6.2-6.8-7.9-1.8-1.7-3.3-3.8-3.3-4.6 0-1.7 3.3-3.2 9-4.4 8.8-1.7 19.3-11.4 23-21.2 4-10.6 1.3-20.9-8.4-31.4-6.1-6.7-12.7-9.2-22.7-8.5-12.3.8-19.8 6-25.9 17.8-3.9 7.7-4.4 11.4-2.5 18.8 1.7 6.7 6 13.1 12.8 19.1 4.4 3.9 4.4 6-.1 6-6.9.1-18.4 5.6-20.7 10-.9 1.7-2 3-2.5 3-2.3 0-5 8-5 14.7 0 8.2 2.1 13.3 8.2 19.9 7.1 7.7 10.1 8.5 31.4 8.2l18.2-.2 3.6 2.7c1.9 1.5 5.6 5.6 8.1 9.1 6.5 9.1 5.9 12-1.5 7.4-3.3-2-4.7-2.1-23.3-2-21.8.2-26-.4-31.5-4.2-7.2-5-18.1-6.9-25.3-4.4-4.8 1.6-14.2 9.5-16.9 14.3-1.9 3.2-2.3 5.2-2.2 11.3.1 4.1.7 9.2 1.4 11.4 1.1 3.8 8.1 12.8 9.8 12.8.5 0 2.6 1.2 4.7 2.6 3.5 2.4 4.5 2.6 12 2.2 4.8-.3 8.9-1 10.1-1.9 1.1-.8 4.9-3.7 8.4-6.4l6.3-5 15.8-.3c15.4-.3 15.9-.3 20 2.2 2.3 1.4 9 7.4 15 13.4 12.6 12.9 16.5 15.8 23.2 17.3 6.2 1.5 34 1.8 49.9.7l11.9-.9 6.2 3c6.9 3.4 13.2 9.1 18.8 17.2l3.7 5.4v11.8c0 9.9-.3 11.9-1.6 12.4-1 .4-2.3-.2-3.3-1.3-.9-1.1-3.3-2.9-5.4-3.9-3.5-1.8-9.9-9.3-11.5-13.3-1.1-2.9-7.9-12.6-10.3-14.8-3.8-3.4-9.1-6.2-13.7-7.3-2.3-.6-6.1-1.6-8.4-2.1-2.8-.8-6.4-.8-11.2-.1-9.4 1.3-36.5 1.7-49.7.6-10-.7-10.9-.7-14.2 1.4-1.9 1.2-5.1 4-7.1 6.2-3.5 3.7-3.6 4.3-3.1 9 .8 7.2 1.8 9.1 6.9 13.6 6.6 5.8 9.9 6.1 25.9 2.3 2.6-.7 9.6-1 15.6-.8 12.1.3 13.5 1 16.7 7.6 3 6.5 8.4 11.9 15 15.3 6.8 3.4 10.5 3.8 22.3 2.6 5.5-.6 6.8-.4 8.5 1.2 1.2 1 4.4 3.4 7.2 5.2 7.8 5.2 16.9 13 19.5 16.8 2 2.8 2.4 5 3 15 1.1 18.6 1.5 20.5 6 24.6 6.2 5.6 10.8 4.6 16.5-3.6l2.9-4.2.2-27.1c.6-66.5.5-74.8-1.6-81.3-3.1-9.7-4.3-11.7-13.8-23.1-1.6-1.8-6.3-5.6-10.5-8.5-4.3-2.8-7.8-5.5-7.8-6 0-3.1 25 3.6 33.8 9 14.2 8.9 25.7 23 29.6 36.4 1.3 4.7 1.6 12.3 1.6 49.1.1 49 .5 52.6 6.1 58.4 4.1 4.2 8.9 5.3 12.5 2.9 1.5-.9 2.9-2.6 3.1-3.6.3-1 .9-1.9 1.3-1.9.5 0 1.4-1.9 2.2-4.3 1.1-3.4 1.3-13.5 1.1-53.2-.2-27-.5-50.4-.6-52-.7-5.9-1.9-9.6-7.1-22.3-1.4-3.5-2.6-7.2-2.6-8.4 0-1.9.4-1.9 5.9-1.3 7.2.8 9 .1 6.5-2.6-.9-1-2.3-1.9-2.9-1.9-.7 0-2.1-1.2-3-2.8-2.4-3.7-8.5-9.3-15.5-14.2-1.9-1.3-3.7-2.7-4-3-1.5-1.9-14.6-8.8-29-15.2-2.5-1.1-5.3-2.5-6.3-3s-3.7-1.3-6-1.8c-6.2-1.3-12.6-3-17.7-4.6-2.5-.8-5.7-1.4-7.1-1.4-1.5 0-4.6-.7-6.9-1.5s-5.7-1.5-7.5-1.5-5.2-.7-7.5-1.5-6.1-1.5-8.4-1.5c-6.5 0-15.6-3.3-18.3-6.6l-2.4-2.9.3-79.8c.3-79.3.3-79.7 2.3-79.7 1.1.1 3.8.9 6 2s4.5 1.9 5.2 2c.6 0 2.4.6 4 1.4 1.5.8 4.4 2.1 6.3 2.9 10.5 4.5 23.5 10.4 26 11.8.8.5 2.2 1.2 3 1.5s2.2 1 3 1.5 3.8 2 6.5 3.4c6.2 3.2 15.6 8.8 32 18.8 6.7 4.1 22.1 16.6 28.2 22.8 4 4.1 9.7 9.9 12.7 12.9l5.4 5.5.6 63c.4 48.9.9 64.1 1.9 67.9 1.4 5 2.9 6.7 4.2 4.7 1.1-1.9 4.9-1.2 8.9 1.5 4.4 3 7.9 2.9 15.1-.7 4.9-2.4 4.9-2.4 5.9.8.5 1.6.2 2.5-1.4 3.3-1.1.6-2 1.9-2 2.8 0 1-.4 2.2-.8 2.8-.4.5-1.4 2.7-2.1 4.9s-1.9 5.3-2.6 7c-.6 1.6-1.8 4.6-2.5 6.5-1.1 2.7-1.5 14.8-1.7 55.3-.3 45.2-.2 52.2 1.2 54.9.8 1.7 1.5 3.6 1.5 4.3 0 .6 1.5 2.8 3.4 4.8 3.7 4 8.3 5 10.6 2.2.7-.8 1.8-1.5 2.4-1.6.6 0 2.2-1.4 3.6-3.2l2.5-3.1 1.1-52.1 1-52 2.6-5.7c8.1-17.7 24-31.2 42.8-36.3 8.2-2.3 20.2-4.6 20.8-4 1 .9-2.3 3.8-6.4 5.5-3.5 1.5-8.8 5.8-15.2 12.2-6.1 6.1-13.1 18.2-14 24.2-.8 5.3-1.3 78.2-.6 93.3.6 13.9.7 14.4 3.6 18 5.7 7.3 11.3 8.3 17 3 4.1-3.7 4.5-5.9 5.2-24.8.3-6.9 1-11.7 1.9-13.5 2.3-4.4 17.1-17.4 26.5-23.3 5.2-3.3 5.3-3.3 12.5-2.3 10 1.4 16.5.3 21.4-3.6 6-4.7 11.1-10.8 12.9-15.2 2.6-6.3 4.8-7.2 17.7-6.7 6.2.2 14.9 1.2 19.4 2.2 7.2 1.7 8.7 1.8 13.5.6 6.2-1.6 7.9-2.9 11.3-8.7 4.8-8.1 2.4-16.4-6.4-22.3l-5.1-3.4-16.3 1.1c-13.2.9-37.5.9-44.7-.1-4.4-.5-19.2 1.7-22.4 3.4-2 1-4.3 1.9-5.2 1.9-2.9 0-10.5 9.3-14.5 17.7-3.2 6.6-5.1 9.1-9.5 12.8-5.9 4.7-9.7 5.7-11.2 2.7-1.8-3.4-2.2-9-1.2-16.2.9-6 1.7-8.2 4.7-12.2 2.1-2.6 4-4.8 4.4-4.8s2.9-2.2 5.7-4.9c2.7-2.7 6.5-5.4 8.3-5.9 4.2-1.4 21.9-3.3 23.1-2.6.5.3 10.2.6 21.7.6 22.5 0 22.2 0 31.3-6.1 2.4-1.6 9.2-7.7 15.2-13.5 6.1-5.8 11.8-10.6 12.7-10.6 1 0 2.2-.6 2.6-1.4 1-1.7 16.6-2.7 26.3-1.6 6.1.7 7.5 1.3 11.7 4.7 2.6 2.2 7.4 5.3 10.7 6.8 5 2.4 6.7 2.7 12 2.3 12.9-1.1 22.8-10.6 24.9-23.8 1.4-9.5-.8-16.2-7.6-23.4-5.4-5.6-8.5-7.1-17.8-8.3-4.9-.6-14.9 2.2-19.9 5.5-4.7 3.1-8.7 3.8-22.1 4-7.4.1-18 .4-23.6.7-7.2.5-10.3.4-10.3-.4 0-1.9 4-9.5 6.4-12.2 4.5-5.1 5.6-5.3 26.7-5.1 18.3.2 19.7.1 21.9-1.8 1.3-1.1 2.9-2 3.6-2 1.8 0 8.2-7.7 11.1-13.5 3.4-6.7 3.8-14.4.9-20.5-2.8-6-12.9-16-16.2-16-3.2 0-14.4-3.1-14.4-4 0-.4 1.6-1.9 3.5-3.4 1.9-1.4 4-3.7 4.7-5s2.5-4.1 4-6.3c6.5-9.8 5.6-24-2.3-33.4-5.5-6.6-9-8.9-16.4-10.9-7-1.9-15-1.4-20.1 1.3-4.4 2.3-14 12.7-15.8 17.1-2.5 6.1-2.3 17.3.4 22.7 5.8 11.3 17.5 19.9 27.1 19.9 7.8 0 8.1 1.2 1.8 7.7-3 3.2-6.8 7.5-8.3 9.5-3.6 5-5.5 5.9-13.4 6.3-10.6.5-17.1 1.6-18.3 3.1-.6.8-1.9 1.4-2.9 1.4-2.7 0-3.1-6.1-2.9-53v-53.4l-.1-10.9-5.3-5.4c-6.1-6-9.7-6.8-15.5-3.3-4.4 2.7-6 2.5-7.4-.8-1.8-4.2-7.5-10.8-11.3-13.2-2.8-1.8-4.3-2-7.8-1.5-2.3.4-5.4 1.4-6.9 2.1-1.5.8-3.4 1.4-4.3 1.4s-5 1.6-9.1 3.5-7.8 3.5-8.3 3.5c-1 0-16.7 6.7-19.1 8.1-.8.5-4.6 2.5-8.5 4.5-3.8 1.9-8.3 4.4-10 5.5-1.6 1-4.1 2.4-5.5 2.9-3.5 1.6-15.2 8.4-24 14.2-4.9 3.3-8.3 4.8-10 4.6-2.5-.3-2.5-.4-2.4-9.1.2-13.9 2.8-20.7 10.9-29 2.9-2.8 7.9-6.8 11.1-8.7s7.6-5.2 9.6-7.2c3.2-3.2 3.8-4.4 3.8-8 0-4.9-.9-8.8-2-8.8-.4 0-1 2.4-1.3 5.4-.6 6.3-2.3 9.5-5.6 10.3-3.1.8-10.9 4.9-14.6 7.8-6.3 4.9-9.4 8.2-12.6 14-3.3 5.8-3.4 6.4-3.8 18.9-.2 10.5-.7 13.4-2.3 16.2-1.1 1.8-2.8 3.6-3.8 3.9-2.6.8-5.9-1.5-6.7-4.5-.3-1.4-.9-3-1.3-3.5-1.4-1.9.7-25.7 2.8-31.7 3.4-9.7 10.4-18.3 20.3-25 6-4.1 16.8-9.8 18.5-9.8.7 0 1.4-.7 1.8-1.5.3-.8 1.6-1.5 3-1.5 3 0 4.2-1.5 2-2.4-2.4-.9-5.6-.6-8.4.9zM605.1 240c-.1 42.6-.1 79.1-.1 81 0 3-.5 3.8-3.2 5.2-4 2.1-10.2 3.7-18.8 4.7-6.1.8-9.4 1.4-20 4.1-2.5.6-6.5 1.5-9 1.9-4.4.7-5.7 1.1-16.6 4.5-2.9.9-6 1.6-7 1.6-1.1 0-3.2.7-4.8 1.5-1.5.8-3.5 1.5-4.3 1.5-1.3 0-24.6 11.2-29.8 14.3-7.4 4.5-11.3 7.6-19.4 15.2-5 4.8-9.6 8.5-10.2 8.3-.8-.3-1.1-18.7-.9-67.3l.1-67 3.2-3.3c1.8-1.8 6.2-5.9 9.9-9 3.8-3.1 7-6.4 7.3-7.3s3.1-3.6 6.3-6c3.1-2.3 5.9-4.6 6.2-5 .6-.8 19.9-13.9 20.5-13.9.2 0 2.1-1.2 4.2-2.6s4.7-3 5.8-3.5 3.4-1.8 5-2.8c3-2 32.9-16.9 39.5-19.8 7.2-3.1 9.6-4.1 15-6.2 8.7-3.4 10.3-4.2 14-6.2 1.9-1 4.3-1.8 5.3-1.6 1.7.2 1.8 3.6 1.8 77.7zm-325.9-63.8c2.4 1.2 4.9 3 5.6 4 1 1.4 1.3 17.2 1.2 77.2 0 49.9.3 76.3 1 78.1.6 1.5 2.3 3.7 3.7 4.9 5 3.9 10.2 5.1 31.8 7.6 5 .6 11 1.5 13.5 2.1 2.5.5 7.4 1.3 11 1.8 8.4 1.1 18.1 3.1 20 4.1.9.4 3.1 1.1 5 1.4 1.9.4 4.4 1.1 5.5 1.6 7.9 3.3 12.2 5.3 13.5 6 .8.5 3.3 1.9 5.4 3 17.2 9.3 32.5 28.5 38.6 48.3 1.8 5.7 2 10.6 2.5 57.3l.5 51.2-2.7 4.1c-3.6 5.6-6.9 5.6-11.3.1l-3.2-4 .3-51.3c.2-46.8.1-51.7-1.6-56.5-.9-2.9-2.1-5.5-2.6-5.8s-.9-1.3-.9-2.3c0-3.5-10.7-16.5-19.2-23.6-6.3-5.2-19.8-12.5-23.2-12.5-.8 0-1.7-.4-2-.9-.4-.5-2.5-1.2-4.9-1.6-2.3-.4-6.1-1.3-8.5-2.1-2.3-.8-6-1.4-8.1-1.4s-5.1-.5-6.7-1c-1.6-.6-7.2-1.4-12.4-1.9-23.9-2.4-30.8-3.3-34.8-4.7-2.3-.8-5-1.4-6-1.4-2.2-.1-10.5-5.8-12.9-9-5.4-7-5.3-4.5-5.3-91.7v-82.1c0-1.8 2.4-1.5 7.2 1zm356 81c-.3 78.7-.4 83.5-2.1 87.3-3.4 7.2-8.8 11.4-18.6 14.3-4.6 1.3-9.8 1.9-41.2 5.1-5.7.6-11.1 1.5-12.2 2.1-1.1.5-3.7 1-5.8 1-2.1.1-5.6.7-7.8 1.5s-4.7 1.5-5.5 1.5-2.8.7-4.4 1.5c-1.5.8-3.5 1.5-4.3 1.5s-2.7.6-4.1 1.4c-1.5.8-3.4 1.7-4.2 2.1-5.3 2.1-14.4 8.8-20.6 15-6.2 6.3-6.9 7.3-11.1 15.7-5.6 11.3-5.3 7.4-5.3 64.7 0 55.4 0 54.8-4.2 59.3-3.6 3.7-9.9 1.2-12.2-4.7-.5-1.1-.8-23.8-.7-50.5.1-48.2.6-56.6 3.7-63.7.8-1.7 1.4-3.5 1.4-4.1 0-3.4 11.9-21.4 18-27.2 7.6-7.2 21.4-17 24-17 .4 0 2.1-.6 3.7-1.4 9.3-4.7 23.7-8.9 36.8-10.7 3.9-.5 8.3-1.4 9.9-1.9 1.6-.6 4.5-1 6.5-1 3.2 0 7.6-.6 26.1-3.9 13.8-2.4 17.4-4.6 20.3-12.8 1.6-4.4 1.7-11.6 1.7-78.5v-73.7l4.3-2.9c2.3-1.7 5.1-3.1 6.2-3.1 2-.1 2 .4 1.7 83.1zm-409.6-41.3c4.7 2.4 9.3 6.6 11.7 10.8 2.5 4.6 2.3 14.1-.5 19-2.9 5.1-8.4 10-12.1 10.7-17.3 3.5-30.8-8.6-28.1-25.3.8-5.2 7.5-12.8 13.4-15.2 5.9-2.3 10.7-2.3 15.6 0zm472.5.1c9.7 4.4 12.4 8.7 12.3 19.5 0 9.2-1.9 13.4-8.2 18.2-3.4 2.6-4.4 2.8-12.4 2.8h-8.7l-4.9-4.8c-3.7-3.7-5.4-6.3-6.7-10.6-1.6-5.3-1.6-6 0-10.8 2.9-8.9 11.9-16.2 20.1-16.3 2.3 0 6.1.9 8.5 2zm-490.8 62.6c5.7 2.9 9.4 7.9 11.5 15 1.9 6.7 2.2 6.7 18.8 5.5 20.5-1.5 18.9-3.3 19.7 23.8.4 11.8.9 21.6 1.2 21.9.2.3 1.1-.1 2-.8 1.2-1 1.8-1 3 0 .8.7 1.5 1.7 1.5 2.3 0 1.5 10.6 14.3 13.8 16.6 3.4 2.4 11.6 5.5 19.2 7.1 6.1 1.4 10 3 10 4.1 0 .9-14.3 1.9-24.2 1.6-6.8-.2-8.1-.5-12-3.3-4.3-3.1-14-14.1-15.8-17.9-.6-1.1-1.6-2.8-2.2-3.8-1.1-1.5-.9-2.1 1.2-3.7 2.5-2 2.5-2 .3-2-1.9 0-2.3-.6-2.3-3 0-4.4-8-16.7-15.1-23.5l-6.2-5.8-18.6.6c-20.4.5-23.2 0-27.1-5.2-1.1-1.4-2.5-3.2-3.2-4-.7-.9-1.2-4.5-1.3-8.6 0-6.3.3-7.6 2.8-10.8 5.4-7.1 15.7-9.8 23-6.1zm510.5.1c3.9 2.4 6.3 5.1 8.4 9.2 3.5 6.8 1.6 14.3-5.6 21.6l-3.9 4-20.1-.3c-23-.4-23.4-.3-30.6 8.5-1.9 2.4-4 4.9-4.6 5.6-.6.6-2.4 4.1-4.1 7.7-5.4 11.2-4.9 13.9 1.4 7.8 1.8-1.7 3.6-2.8 4-2.4.5.5-1.5 2.9-4.3 5.5-2.8 2.5-5.9 6.2-6.9 8.1-2.5 4.8-16.3 19.7-19.4 20.9-5.1 1.9-14.4 2.3-17.5.6-2-1.1-3.3-1.2-4-.5-1.1 1.1-14.7 1.4-22 .4-4.9-.7-6.4-2.4-2-2.4 1.4 0 3.4-.5 4.4-1 2-1.1 14.5-3.1 21.2-3.4 2.1-.1 4.3-.7 5-1.4s1.8-1.2 2.6-1.2c5.5 0 17.6-11 22.3-20.2 2.1-4.1 2.8-4.5 4.7-2.6.6.6 1.4.9 1.8.6.3-.4.8-9.8 1.1-21.1.5-17.2.9-20.7 2.3-22.5 1.7-2.1 2.1-2.1 18.6-1.2 17.5 1 18.3.8 18.4-3.2 0-5.2 5.3-12.7 12-17.1 3.4-2.2 13.2-2.2 16.8 0zm-545.6 60.9c2.5.4 5.5 2.3 9.3 5.6 3.1 2.9 6.1 4.8 6.9 4.5s12.3-.7 25.6-.8l24.2-.2 3.8 4.7c2.2 2.6 9.5 10.5 16.3 17.6l12.3 12.9 36.5.3c26.9.2 36.9.6 38.4 1.5 1.1.7 3.1 1.8 4.5 2.3 1.4.6 3.9 1.9 5.5 3 1.7 1.1 3.6 2.3 4.4 2.6 5.3 2.6 17.1 18.7 17.1 23.4 0 .9.7 2.5 1.5 3.8 1.4 1.9 1.5 8.5 1.2 53.8l-.4 51.6-2.8 3.4c-3.4 4.1-6.4 4.3-10.1.9l-2.7-2.5.5-18.4c.4-18.1.4-18.5-1.8-20.8-3.4-3.6-7.4-7-13.9-12-3.3-2.6-10-8.1-15-12.2-9.1-7.7-11.3-8.7-13.4-6.2s-9.9 3.8-15.2 2.6c-8.6-2.1-13.9-9.3-14.8-20.4l-.6-6.9-19.9.2c-19.2.2-20 .3-23.5 2.7-4.3 2.9-12.8 3.3-16.6.8-2.3-1.5-2.5-2.3-2.5-9 0-6.3.3-7.4 1.8-7.5 3.6-.3 15.7.3 16.6.9.6.3 14.3.5 30.5.4 33.4-.3 38 .3 44 5.4 4 3.5 9.1 12.8 9.1 16.7 0 1.8 2.2 3.7 9.7 8.7 5.4 3.6 10.2 6.7 10.8 6.9 1.8.7 8.9 6.5 10.8 8.8 1 1.3 2.5 2.3 3.4 2.3 1.3 0 1.4-2.8 1-22l-.4-21.9-5.6-7.4c-3-4.1-6.8-8.6-8.4-10.1-4.5-4.2-12.1-9.6-13.5-9.6-.8 0-1.8-.4-2.4-1-.5-.5-15.2-1-35.7-1.2l-34.9-.3-4-4.5c-2.2-2.5-7.9-8.6-12.7-13.5-4.7-5-10.2-11-12.1-13.2l-3.5-4.2-23-.3c-22.1-.2-23-.1-23.3 1.7-.5 2.3-4.7 8.2-7.7 10.7-5 4.2-16.3 3.4-21.6-1.5-7.8-7.3-9.2-16.3-3.7-24.8 4.9-7.4 10.6-9.8 20-8.3zm577.7 3.2c4.7 3.8 7.9 9.7 8 14.7 0 5.3-3.5 12.1-8.2 15.9-3.5 2.8-4.6 3.1-10.5 3.1-9 0-14.2-3.4-17.7-11.3l-1.4-3.2h-44.9l-9.8 10.7c-8.5 9.3-17.7 19.2-22.2 23.9-1.1 1.1-7.7 1.4-34.5 1.4-30.7.1-33.5.2-36.7 2-1.9 1-4.5 2.4-5.8 3-2.3 1-13.4 11.7-18 17.4-4.1 5-5.1 10.7-5 29.6 0 9.6-.1 18.4-.3 19.4-.8 3.8 2.2 2.6 8.3-3.1 7.6-7.2 12.4-10.8 20.4-15.6 6.4-3.9 7.8-5.9 8.8-13.1.8-5.9 8.3-12.8 15.7-14.4 3.4-.7 20-1.3 44.6-1.6 33.9-.3 39.2-.2 39.7 1.1 1.2 2.9.6 14.1-.6 14.5-.7.3-5.5.3-10.7.2-6.8-.2-9.8-.7-11.1-1.9-1.5-1.3-4.9-1.6-20.6-1.7l-18.9-.1-1 7.4c-.5 4.1-1.6 8.5-2.4 9.9-2.4 4.1-8 9-11.2 9.7-1.6.3-3.2 1-3.5 1.4-1.4 2.4-11.7-.5-13.7-3.8-1.2-2-4.6-1.5-7 1.1-1.2 1.3-5.1 4.8-8.7 7.7-3.6 3-7.6 6.4-9 7.6s-5.6 4.7-9.5 7.8c-3.8 3.1-7.4 6.7-7.8 7.8-.5 1.2-.7 9.7-.6 18.9.2 16.2.2 16.8-2.2 20.2-3 4.4-5.4 4.5-9.7.5l-3.3-3.1.3-55.1c.3-53.1.4-55.3 2.3-58.6 1.1-1.9 2.4-4 2.8-4.5.4-.6 2.1-3 3.7-5.2 3.7-5.2 11.5-11.2 20-15.6l6.5-3.3 36-.5 36-.5 7.4-8c4.1-4.4 9.8-10.5 12.6-13.5s6.4-7.2 7.9-9.3l2.8-3.7h53.4l4.7-4.4c5.2-5 6.8-5.6 15.1-5.1 4.6.3 6.6.9 9.5 3.3zm-499.5 1.8c.4 1.1.1 1.4-1.1 1.2-.9-.2-1.8-.9-2.1-1.6-.6-1.8 2.5-1.5 3.2.4z"/><path stroke-width="1.5" d="M576.8 214.5c-.7.7-10.3 4.4-14.3 5.5-4.7 1.3-9.7 3.1-12.7 4.6-1.4.8-3.3 1.4-4.1 1.4-.9 0-2.8.6-4.4 1.4-1.5.7-4.5 2.1-6.6 3-2 .8-5.4 2.3-7.5 3.2-2 .9-5 2.2-6.7 2.9-9 3.8-24.6 12.2-29 15.5-9.2 7-11.3 9.6-12 15.3-.4 2.9-1.6 6.6-2.6 8.3-1.6 2.6-1.9 5.1-1.9 13.8 0 10.8.9 14.6 3.4 14.6 2.3 0 2.7-2.9 2.5-16.5l-.2-13 3.9-2.8c2.1-1.5 4.8-3.2 5.9-3.7 1.1-.6 3.6-2 5.5-3.1 4.6-2.8 17-9.1 24.5-12.4 3.3-1.4 7.4-3.2 9-3.9 1.7-.8 5-2.1 7.5-3.1 2.5-.9 6-2.3 7.8-3.1s4.1-1.4 5-1.4c1 0 2.6-.6 3.7-1.4 1.1-.7 3.1-1.6 4.5-1.9s5.7-1.7 9.5-3.1c3.9-1.4 7.8-2.6 8.7-2.6 3.5 0 4.8-2.8 4.8-10.6 0-6.5-.2-7.4-1.8-7.4-1 0-2.1.2-2.4.5zM478.7 242.7c-.3 1-1 3.3-1.5 5-1.5 4.6.5 5.3 2.3.9 1.7-4 2-7.6.6-7.6-.5 0-1.1.8-1.4 1.7zM575 251.4c-5 2.8-14.9 5.9-23.7 7.5-5.8 1.1-7.1 2.4-7.6 8.4-.2 2.9-.8 6.2-1.2 7.4-.7 2.1-.4 2.3 2.3 2.3 1.7 0 4.3-.6 5.9-1.4 4.8-2.4 17.2-6.2 23.8-7.5 6.3-1.1 6.5-1.4 6.5-10.2 0-8.7-.7-9.4-6-6.5zM520.9 290.2c-2.4 1.2-5.7 2.7-7.4 3.3-5.9 2.5-11 4.8-12.5 5.7-.8.4-2.1 1-2.7 1.3-4.3 1.7-6.2 2.8-12.4 7.3-4.1 3-4.7 3.9-5.2 8-.4 2.6-.9 5.7-1.3 6.9-.5 1.9-.2 2.3 1.8 2.3 1.3 0 2.9-.5 3.5-1.1s2.2-1.7 3.5-2.5c5.1-2.9 28.6-14.4 29.4-14.4.5 0 2.8-.8 5.1-1.8 3.9-1.5 4.3-2 4.3-5.2 0-1.9.3-5.1.6-7.1.8-4.7-.9-5.4-6.7-2.7zM589.2 297c-3 1-6.6 1.9-8 1.9-3.1-.1-10.1 1.7-15 3.7-1.8.8-4.2 1.4-5.3 1.4s-3 .5-4.2 1.2c-1.2.6-3.5 1.5-5.2 1.9-6.7 1.7-23.8 8.5-33.7 13.6-1.4.7-3.1 1.3-3.7 1.3-1.5 0-8.1 4.3-8.1 5.3 0 .4 1 1.2 2.3 1.7 1.2.5 3.4 2 4.9 3.3 3 2.6 6.5 2.6 10.3.1 1.1-.8 2.9-1.4 4-1.4 1.2 0 3-.7 4.1-1.5 1-.8 3-1.5 4.5-1.5 1.4 0 3-.5 3.5-1 .6-.6 3.2-1.6 6-2.4 2.7-.8 7.2-2.1 9.9-2.9 12.8-3.8 17.3-5 21-5.6l4-.6.3-5c.4-9.2.7-9.5 5.5-8.9 3.2.5 5.2.1 8.5-1.6 4.5-2.4 5.1-3.4 2.6-4.4-2.1-.8-2.1-.8-8.2 1.4zM476.5 330.3c-1.3 5 5 14.3 8.8 13.2 1.2-.4 3.1-.9 4.2-1.2 4.2-1.1 16.5-10.4 16.5-12.5 0-3.1-14.6 3.1-19.8 8.4-1.5 1.5-3.2 2.8-3.8 2.8-1.3 0-2.7-5.7-1.8-7.2 1-1.6-.5-5.8-2.1-5.8-.8 0-1.7 1-2 2.3zM211.2 228.3c-2.7 2.8-3.7 9.4-2 12.6.7 1.3 3 3.3 5 4.3 3.6 1.9 3.7 1.9 7.7-.1 6.5-3.4 7.7-12 2.3-16.9-3.5-3.1-10-3.1-13 .1zM683.2 229.3c-5.1 5.3-4 11.7 2.6 15.4 7.6 4.4 16.5-3.8 13.1-12-3.1-7.5-10.3-9-15.7-3.4zM194.9 289.3c-2.7 1.8-3.5 3-3.7 6.1-.3 3.3.1 4.3 2.5 6.2 4.2 3.5 9.4 3.2 12.7-.7 3.1-3.7 3.2-4.2.6-8.4-1.6-2.6-6.2-5.5-8.5-5.5-.1 0-1.7 1-3.6 2.3zM705.8 288.6c-8 4.3-5.8 15.4 3 15.4 8.7 0 11.8-11.6 4.1-15.5-3.4-1.8-3.7-1.8-7.1.1zM162.9 351.6c-1.8 2-2.4 3.7-2.4 7.3 0 6 1.7 8.1 6.5 8.1 3.1 0 4.2-.6 6.4-3.4 3.4-4.5 3.3-7.6-.3-11.5-3.6-3.8-6.9-4-10.2-.5zM303 438c-4.6 4.6-.8 13 5.9 13 9.2 0 11.1-7.8 3.1-13.3-3.3-2.3-6.6-2.1-9 .3zM734.1 351.6c-2.4 2-3.1 3.4-3.1 6.2 0 4.2.5 5.2 4 7.5 5.1 3.5 10.8.5 11.7-6.2.5-3.5.2-4.4-2.5-7.1-3.7-3.7-6.1-3.8-10.1-.4zM593.3 439.5c-3.4 3.4-3.4 3.4-1.8 6.5 1.5 2.8 4.9 5 7.8 5 .7 0 2.5-1.1 4-2.5 3.3-3.1 3.6-7.6.7-10.5-3-3-6.7-2.5-10.7 1.5zM328.7 214.7c-.3.5-.2 4.4 0 8.8l.5 8 6.2 1.9c3.3 1 7.5 2.4 9.3 3.2 1.7.8 3.6 1.4 4.2 1.4s2.5.6 4.3 1.4 4.9 2.1 7 3c2 .9 4.1 1.6 4.6 1.6.6 0 2.3.6 3.9 1.4 1.5.7 4.4 2 6.3 2.9 7.2 3.1 24.7 11.8 30.5 15.2 3.3 1.9 6.7 3.8 7.5 4.2 3.2 1.7 9 5.9 9.4 6.8.2.6 0 4.4-.4 8.5-.7 7.6.4 19.8 1.9 21.3.5.5 1.6-1.3 2.5-3.9 1.7-4.9 1.4-15.6-.5-21.9-.5-1.7-1-6-1-9.5-.1-8.2-.6-10-2.7-10-.9 0-3.6-1.8-5.9-4.1-4.9-4.7-13.9-10.9-15.8-10.9-.7 0-1.8-.7-2.5-1.5s-1.7-1.5-2.3-1.5c-.5 0-4.6-1.7-9.1-3.9-10-4.7-15.7-7.3-21.6-9.5-2.5-1-5.8-2.4-7.3-3.2-1.6-.8-3.6-1.4-4.5-1.4s-2.6-.7-3.6-1.5c-1.1-.8-2.8-1.5-3.7-1.5-1 0-3.2-.8-5.1-1.7-1.8-.9-4.5-2.2-6-3-2.9-1.5-5.5-1.7-6.1-.6zM410 230.2c0 .7 2.3 3.7 5 6.6 2.8 2.9 5 5.9 5 6.6 0 .8.6 1.9 1.4 2.5.7.6 1.7 2.6 2 4.4.6 2.8.8 3 1.7 1.4.7-1.2.7-3.5-.2-7.3-1.1-4.8-2-6.2-6.8-10.5-5.4-4.9-8.1-6.1-8.1-3.7zM328.6 250.8c-.9 1.5-.4 14.7.6 15.9.6.7 2.4 1.3 4 1.3s4.5.7 6.5 1.5c1.9.8 4.4 1.5 5.4 1.5 1.8 0 4.8 1.1 13.7 5.2 6.4 2.9 7.2 2.2 7.2-6.5v-7.4l-4.2-1.5c-2.4-.9-7-2.3-10.3-3.3-7.6-2.2-13.2-4.3-16.8-6.1-3.2-1.6-5.3-1.8-6.1-.6zM380 296.1c0 6.1.3 7.3 2.3 9 1.2 1 2.8 1.8 3.6 1.9.8 0 6 2.3 11.5 5.1 10.8 5.4 11.9 6 18.1 9.9 2.2 1.4 4.8 2.9 5.8 3.3 1.3.5 1.7 1.8 1.7 6.7 0 6.2 1.1 7.6 3.1 3.9.8-1.6.8-3.3-.1-6.8-.7-2.5-1.2-7.1-1.1-10.3.1-5.4-.1-5.8-3.6-8.5-2.1-1.7-4.5-3.3-5.3-3.6-.8-.4-2.8-1.6-4.5-2.7-2.9-1.9-3.4-2.2-6.5-3.4-.8-.3-2.4-1.1-3.5-1.8-4-2.3-5-2.8-6.5-3.4-.8-.3-4-1.9-7.1-3.5s-6.2-2.9-6.8-2.9c-.7 0-1.1 2.6-1.1 7.1zM328.8 300.2c-.3.7-.3 4.6 0 8.5.3 5.7.8 7.3 2 7.3 1.5 0 10.1 2.3 15.7 4.2 1.7.5 4.4 1.3 6 1.8 4.6 1.3 9.7 3.1 12.7 4.6 1.4.8 3.3 1.4 4.1 1.4.9 0 2.8.6 4.4 1.4 1.5.8 4.4 2.1 6.3 3 1.9.8 5.6 2.4 8.1 3.5 6.4 3 8.8 2.7 10-.9.6-1.7 1.6-3 2.3-3s3.3 2 5.8 4.4c4.8 4.6 9.4 6.1 13.6 4.5 2.8-1.1 2-2.9-1.4-2.9-1.3 0-2.4-.4-2.4-.9 0-1.1-5.7-4.6-9.1-5.6-1.3-.4-4.2-2-6.4-3.4-2.2-1.5-6-3.7-8.5-5-2.5-1.2-6.5-3.3-8.9-4.7-2.4-1.3-5-2.4-5.6-2.4-.7 0-1.8-.6-2.4-1.4s-2.2-1.6-3.4-1.9-4.7-1.5-7.7-2.7-6.8-2.5-8.5-3c-3.1-.9-8.3-2.6-12.5-4.2-2.2-.9-12.6-3.8-13.4-3.8-.2 0-.6.6-.8 1.2zM456.5 562.6c-2.7.7-6.9 1.8-9.1 2.2-8.5 1.8-25.5 15-29.4 22.8-.8 1.6-1.9 3.6-2.5 4.4-3.9 5.2-5.9 20.5-4 31 1.2 6.9 6.1 15.8 12.6 22.9 3.3 3.5 5.9 7 5.9 7.8 0 .7-1.9 2.6-4.2 4.1-2.4 1.5-7.5 6-11.4 9.9-3.9 4-7.9 7.3-8.8 7.3-1 0-4.4-2.2-7.5-4.9-4.5-3.9-6.8-5.1-11.6-6.1-3.3-.7-6.3-1.7-6.7-2.3-.3-.6.7-3.4 2.4-6.4 2.9-5.1 3-5.6 2.6-16.5-.3-10.5-.5-11.6-3.2-15.5-3.2-4.9-3-6.8 1.1-7.6 10.5-2 14.9-4.6 19.8-11.7 2.8-4.1 3-4.7 2.8-14.2-.2-9.7-.3-10.2-3.7-15.3-2.4-3.7-4.8-5.9-8.3-7.6-4.8-2.4-5-2.4-42.4-2.6-40.8-.2-40.1-.3-46.2 5.5-1.6 1.5-3.9 4.5-5.2 6.7-2.3 4-2.4 4.4-3 44.5-.9 51.5-.8 51-3.5 51-1.4 0-4.5-6.7-5.9-12.5-.7-2.8-1.8-5.7-2.6-6.5-.7-.8-1.8-3.3-2.5-5.5s-1.9-5.6-2.6-7.5c-.8-1.9-2.9-8-4.8-13.5-1.8-5.5-5-14.5-7-20-2.1-5.5-4.1-11.5-4.6-13.4s-2.3-6.6-4-10.5c-2.5-5.8-4.1-8-8.8-11.7-5.8-4.7-8.3-5.7-16.3-6.6-7.3-.8-11.7 1-18.4 7.5-5.6 5.3-6.5 6.8-11.3 18.8-2.9 7.1-5.2 13.6-5.2 14.4s-.6 2.6-1.3 4-2.1 5.2-3.1 8.5c-.9 3.3-3 8.7-4.5 12-1.6 3.3-3.1 7.4-3.4 9.1s-2.6 8.2-5.1 14.5c-2.4 6.3-6.1 15.7-8.2 21-3.9 10-5.9 13.7-7 12.6-1.2-1.2-2.4-37.7-2.1-63.1.2-13.8.1-30-.3-35.9l-.7-10.9-4.4-4.5c-5.6-5.7-6.8-6.3-14.2-7.3-9.6-1.4-13.5 0-21.5 7.9-5.9 5.8-20 24.7-22.7 30.5C98.3 608 89.5 619 88 619c-2.1 0-6.9-5.2-10.9-11.8-1.7-3-5.4-8.2-8-11.6-2.7-3.4-5.6-7.7-6.5-9.4-2.4-4.7-15.5-17.5-20.2-19.7-2.6-1.2-6.1-1.9-10.5-1.9-8 0-11.6 1.9-17.6 9.2l-4.3 5.3-.2 49.2c-.1 27.1-.2 53.2-.3 58.2s.4 10.9 1.1 13.1c1.6 5.8 7 12.2 12.7 15 4 2.1 5.8 2.4 12.4 2.1l7.7-.4 5.9-5.3c7.2-6.5 8.5-9.4 9.2-20.7.4-4.8.8-10.3 1.1-12.1.5-3 .6-3.1 2.9-2 1.3.7 3.9 3.4 5.7 6 3.4 4.8 10.7 11.6 14.4 13.6 1.2.6 3.8.9 5.8.5 3.4-.5 7.4-3.9 19.4-16.6 5-5.1 5.9-3.8 6.7 9.5.6 9.9 2.4 14.9 6.8 19.7 6.2 6.5 9.3 7.8 18.2 7.7 7-.1 8.6-.5 12.4-3 2.4-1.5 6.4-4.8 8.8-7.3l4.4-4.6 5.7 5.4c10 9.5 10.8 9.9 21.8 9.9 7.7 0 10.1-.4 11.6-1.7 1.6-1.4 2.7-1.5 9.8-.5 9.8 1.4 12.6.4 19.3-6.7 6.8-7.2 6.7-11.2-.4-24.9-5.7-10.9-6.5-16.9-2.8-21.6 2.6-3.3 3.7-3.3 5 .1 3.4 8.4 5.3 13.8 8.1 22.3 1.6 5.2 4.1 11.7 5.3 14.5 2.7 5.7 9 13.5 11 13.5.7 0 2.7 1.1 4.3 2.5 2.7 2.3 3.6 2.4 11.8 2.1 5.5-.2 8.9-.7 9.2-1.4.2-.7 1-1.2 1.8-1.2s3.4-1.8 5.8-4 5-4 5.9-4c.8 0 3 1.4 4.7 3.1 1.7 1.8 4.7 4.3 6.7 5.6l3.6 2.4 37.1-.3c35.8-.3 37.2-.4 41.1-2.5 5.9-3.1 11-9.2 14.5-17.1 1.4-3.2 3.1-2.8 9.5 2.4 7.3 6 14.9 11.1 17.8 12 1.2.3 4.2 1.7 6.7 3 4.3 2.3 5.2 2.4 27.7 2.4 14.7 0 23.4-.4 23.8-1s3.2-2.3 6.3-3.9c12.1-6.1 21.7-17.3 26.4-30.9 2.7-7.7 3-9.5 2.6-17.7-.8-15.5-5.5-23.9-21.3-37.4l-5-4.3 3.5-2.7c1.9-1.4 6.7-5.9 10.6-9.9 3.9-3.9 7.8-7.2 8.6-7.2.9 0 4.3 2.6 7.8 5.9 6.6 6.2 8.8 7.1 18.5 7.1 4.1 0 5.6.5 8.1 2.8l3.1 2.8-.4 32.8c-.5 46.7.4 51.4 11.8 58.7 4.4 2.8 6.4 3.4 12.1 3.7 10.8.6 13.1-.2 19.7-6.8 7.4-7.4 7.1-5.7 7.3-52.3.1-31.2.3-36.1 1.7-37.8 1.7-2.1 7.5-3.8 13.1-3.9 4.3 0 9.1-2.8 15.1-8.9l4.6-4.7.5-9.7c.4-7.2.2-10.4-.9-12.4-1.8-3.6-10-12.1-13.3-13.8-3.4-1.7-84-2-90.9-.3-3.6.9-5.9 2.5-10.3 7.2-3.2 3.3-5.8 6.4-5.8 7s-.4 1.8-1 2.6c-.7 1.1-2 .4-6.7-3.6-10-8.7-20.8-13.8-34.7-16.3-8.1-1.5-20-1.3-26.1.5zm23 10.9c7.9.9 19 4.6 26 8.8 6.4 3.9 10.5 7.1 10.5 8.3 0 .8-1.7 3.1-3.7 5.3-5.6 5.7-7.6 8.2-10.2 12.3-1.2 2.1-2.8 3.8-3.4 3.8-.7 0-3-1.6-5.1-3.5-6.8-6-13.3-8.4-24.9-9.2-7.9-.5-11.7.6-16.4 5.1-2.7 2.5-3.3 3.7-3.3 7.2 0 3.7.5 4.6 3.9 7.3 2.1 1.7 4.6 3.1 5.4 3.1s2.8.7 4.3 1.5c1.6.8 4.3 1.5 5.9 1.5 1.7.1 4.1.7 5.5 1.5s3.9 1.4 5.7 1.5c1.7 0 3.4.4 3.8.9.3.5 2 1.3 3.8 1.6 6.2 1.4 15.9 6.9 19.7 11.3 7.3 8.2 8.4 11.3 8.4 23.7 0 8.4-.4 11.7-1.7 14-.9 1.6-1.7 3.4-1.7 3.8 0 1.5-4.5 7.2-9.3 11.9-11.1 10.7-33.1 16.2-47.7 12-2.5-.7-7-2.1-10-2.9-8-2.4-16-7.1-24.5-14.2-4.1-3.5-7.5-6.6-7.5-6.9 0-.4 1.6-2.1 3.7-3.7 4.9-4.1 14.3-13.7 14.3-14.7 0-1.9 2.6-.4 8.2 4.7 9.4 8.7 18 12.4 29.1 12.5 7.6 0 11.3-1.4 16.5-6.3 2.8-2.7 3.2-3.7 3.2-8.2 0-5.5-1-6.9-7.1-10-3.5-1.9-11.2-4.2-17.9-5.5-16-3.1-29.1-9.4-34.8-16.8-5.1-6.7-6.2-10.5-6.2-20.7 0-8.9.9-13.1 4.1-18.5.5-.8 1.3-2.5 1.9-3.7 1.4-3.3 10.2-11.5 14.6-13.7 2.2-1 4.8-2.3 5.9-2.9 2.5-1.4 18-3.6 22-3.1 1.7.1 5.7.6 9 .9zm-327.9 1.6c1.1 1.9 1 128.9-.1 129-6.4.3-24.8-.1-25.3-.6-1.1-1-.2-52.1 1-62.2.6-5.1.8-9.6.4-10-1.3-1.3-3.9 1.3-6.9 6.8-1.6 3-7.7 12.5-13.5 21.2-13.8 20.4-13.8 20.4-16.4 25.5-3 5.7-5.4 5.4-8.8-1.3-1.4-2.8-7-11.8-12.6-20.1-5.5-8.3-10.4-15.7-10.7-16.5-.4-.8-1.6-2.8-2.7-4.4-1-1.7-2.9-4.9-4.2-7.3-5.1-9.8-5.4-7.7-4.8 31.8.3 19.5.2 35.9-.1 36.4-.4.5-6.5.9-13.6.9l-12.8.1-.3-64.2c-.2-51 0-64.2 1-64.3 12.7-1.1 22.8.3 22.8 3.2 0 .8 3.5 6 14.3 21.4 11.5 16.3 17.2 24.6 18.2 26.3.6.9 2.3 3.6 3.8 5.9 1.5 2.4 2.7 4.6 2.7 5 0 .5 1.1 2.1 2.3 3.7l2.3 2.9 2.2-3.7c1.2-2.1 2.2-3.9 2.2-4 0-.5 13-19.8 19.5-29.1 5.1-7.2 18.2-26.8 20.1-30.1.9-1.5 2.8-2 9.5-2.5 4.6-.3 8.7-.6 9.1-.7s1 .3 1.4.9zm93 1.2c.3.2 1.4 3.1 2.5 6.3s2.3 6.8 2.8 7.9c1.3 3.3 3.2 8.8 4.1 12 .5 1.6 1.8 5.5 3 8.5s2.4 6.6 2.7 8 1.2 3.4 1.9 4.5c.8 1.1 1.4 2.9 1.4 4 0 1.2.7 3 1.5 4.1.8 1 1.5 2.7 1.5 3.7 0 1.1.6 3.3 1.4 5 .8 1.8 1.6 4.1 1.9 5.2s1.5 4.5 2.7 7.5 2.5 7 3 8.9c.5 1.8 1.3 3.8 1.9 4.4s1.1 2 1.1 3.2c0 1.1.7 3.3 1.5 4.9.8 1.5 1.5 3.6 1.5 4.5 0 1 .7 2.6 1.5 3.7.8 1 1.5 2.7 1.5 3.6 0 1.7 1.9 6.7 4.6 12.1 3.1 6.3 2.9 6.4-12.3 5.9-7.6-.2-14.4-.9-15-1.4-.7-.6-1.3-2.4-1.3-4 0-1.7-.6-4.2-1.4-5.6-.7-1.5-2.1-5.4-3.1-8.7-.9-3.3-2.3-7.6-3-9.5-2.9-8.2-3.7-10.7-4.5-13.5-1.1-3.9-2.9-9.1-4.6-13.3-.8-1.8-1.4-4.1-1.4-5.2s-.6-3.4-1.4-5.2c-2.3-5.4-4.6-14.3-4.6-17.7 0-3.5-2.2-5-4.5-3.1-.8.7-1.5 2.3-1.5 3.5 0 2.3-2.4 11-4.2 15.5-.6 1.4-1.4 3.8-1.8 5.5-.5 1.6-1.8 5.5-3 8.5s-2.6 6.8-3 8.5c-.5 1.6-1.6 5-2.5 7.5-2 5.3-1.5 8.4 2.1 13.6 1.4 2.2 3 4.8 3.5 5.9s1.8 3.3 2.9 5c1.1 1.6 2.3 3.7 2.7 4.5s1.5 2.7 2.6 4.2c1.1 1.4 1.6 3.1 1.3 3.7-.4.7-4.1 1.1-9.1 1.1H213l-2.2-3.5c-2.8-4.2-4.4-4.4-5.3-.8-.3 1.5-1.2 3.1-1.8 3.5-.7.4-6.1.8-12 .8-6 0-11.7.5-12.7 1-1.5.8-2.1.6-3-1-.8-1.5-.6-2.8.9-5.7 3.1-6.1 5.1-11.2 5.1-13.1 0-1 .5-2.3 1.1-2.9s1.4-2.6 1.9-4.4c1.1-4.6 3-9.8 4.6-13.1.8-1.4 1.4-3.4 1.4-4.5 0-1 .7-2.7 1.5-3.7.8-1.1 1.5-2.9 1.5-4 0-1.2.7-3 1.5-4 .8-1.1 1.5-2.9 1.5-4 0-1.2.7-3 1.5-4 .8-1.1 1.5-2.9 1.5-4.1 0-1.1.6-2.9 1.4-4 .7-1.1 1.6-3.1 1.9-4.5s1.5-5 2.7-8 2.5-6.9 3-8.5c.5-1.7 1.8-5.5 3-8.5s2.4-6.4 2.7-7.5 1.1-3.4 1.8-5c.7-1.7 2.1-5.6 3.1-8.7 1-3.2 2.4-5.9 3.3-6 2.2-.5 21.2 0 21.7.5zm150 13.7v14.1l-29.3-.2c-16.2-.1-29.7.1-30 .5-.6.6-.7 21.6-.1 22.1.2.1 8.9-.1 19.3-.5 10.5-.5 19.2-.6 19.4-.4.2.1.3 6.7.3 14.4s-.1 14.3-.3 14.5-8.7 0-18.9-.4-18.8-.5-19.3-.1c-1.2 1-1.4 22-.2 22 1.5.1 50.3-.3 55-.4l4-.1.2 13.7c.1 7.6-.2 14-.7 14.3-1 .6-85 .8-85.7.2-.5-.6-.5-126.6.1-127.5.2-.4 19.7-.6 43.3-.5l42.8.2zm239.1-14c.8 0 1.1 3.9 1.1 14l-.1 14.1-16.6-.1c-9.1 0-17.2-.1-17.9 0-1.1 0-1.3 9.2-1.1 49.5.1 27.3-.1 49.8-.4 50.1s-6.3.6-13.4.6l-12.8.1v-50.2c0-32.7-.3-50.1-1-50.2-.5 0-8.8 0-18.2.1l-17.3.1v-13.9c0-7.6.2-14.1.4-14.3.3-.3 84.5-.2 97.3.1zM665.4 565c-3.2 1-8.5 6.7-12.5 13.4-2.2 3.7-2.2 3.8-2 59.4.1 30.6.4 57.9.8 60.6.5 4.1 1.4 5.7 5.2 9.6 9.1 9.3 7.9 9.1 50.3 9l37.1-.2 5.6-4.5c3.1-2.5 6.9-6.4 8.4-8.7 1.6-2.2 3.3-4.1 3.8-4.1 1.2 0 9.9 8.5 9.9 9.7 0 .4 2.5 2.5 5.7 4.4 5.5 3.6 5.8 3.7 13 3.1 8.6-.6 14.4-3.5 19.2-9.5 4.2-5.4 5.1-8.2 5.1-16.1 0-8.1 1.5-10.3 5.6-8.1 2.4 1.3 7.6 8.6 10.1 14.3 1.6 3.6 12.3 14 17.6 17.1 3.7 2.2 5.2 2.4 13.2 2.2 8-.3 9.5-.6 13.6-3.2 12.2-7.6 13.1-13.2 5-29.4-5.2-10.3-8.1-17.3-8.1-19.7 0-.6 2.5-4.9 5.7-9.5 6.8-10 11.3-21.9 11.3-29.9 0-11.3-2-21.7-5.7-28.6-1.8-3.6-4.5-7.9-5.8-9.5-1.4-1.6-2.5-3.3-2.5-3.7 0-1.2-11.2-9.6-17.3-13.1-2.9-1.6-6.5-3-8-3-1.4 0-5.3-.7-8.8-1.6-5.2-1.3-10.5-1.5-32.8-1.1-14.6.3-27.5.9-28.6 1.3-3.7 1.4-9.7 6.9-12.1 11-2.8 4.8-2.8 4.2-2.5 59.1.3 42-.6 50.7-4.1 42.3-2-4.5-12.8-12.7-18-13.5-11.5-1.7-12.1-2.2-8.4-6.6 3.4-4 4.4-8.7 4.2-19.4-.2-8.2-.5-9.6-3.5-14.9-1.9-3.5-2.9-6.2-2.4-6.7s3.4-1.2 6.4-1.6c7-.8 9.3-2 15.9-8.8l5.5-5.6v-10.2c0-9.9-.1-10.3-3.2-14.7-1.8-2.5-5.6-6.1-8.4-8l-5-3.4-37.7-.3c-22.1-.1-39 .2-40.8.7zm82.9 11c.4 0 .7 6.3.7 14v14.1l-29.6-.1c-16.3-.1-29.8.1-30.1.4-.8.8-.6 20.3.2 21.6.3.6 2.9.8 5.8.5 2.9-.2 11.4-.7 19-1l13.7-.6v14.5c0 8-.3 14.7-.8 15-.4.2-8.8.1-18.7-.3s-18.4-.4-18.9 0c-.9.8-1.2 20.6-.3 21.5.4.5 33.1.5 55.7 0l4.4-.1.1 13.8c0 7.7-.3 14.1-.7 14.3-.4.3-20 .5-43.5.5l-42.8.1-.3-63.4c-.1-34.8 0-63.8.2-64.3.3-.8 60.3-1.1 85.9-.5zm78.3.3c16.8.3 20.4.6 22.4 2 1.4.9 3 1.7 3.8 1.7 2.2 0 11.8 7.6 15.4 12.2 11.5 14.7 12.9 35.9 3.4 52.3-3.6 6.3-9 12-13.8 14.7-4.4 2.5-4.5 3.1-1.7 6.1 1.1 1.2 3.7 5.1 5.7 8.7s4.2 7.4 4.9 8.5c.6 1.1 2.1 4 3.4 6.5 2.6 5.1 6 10.3 7.2 10.8.4.2.7 1.7.7 3.4 0 2.7-.2 3-2.2 2.3-1.3-.4-8-1-15.1-1.2l-12.7-.5-2.8-4.6c-4-6.9-4.4-7.6-7.6-13.4-1.6-2.9-4.6-8.4-6.5-12.3l-3.6-6.9-12-.1h-12v18.2c0 10-.3 18.4-.7 18.8-.3.4-6.4.7-13.5.7l-12.8.1-.3-63.4c-.1-34.9 0-63.9.2-64.5s5.5-.9 15.2-.7c8.2.1 23.9.4 35 .6zM764 696.4c-1.4 1.4-2.4 0-1.6-2.1.6-1.5.8-1.5 1.6-.3.6.9.5 1.9 0 2.4z"/><path stroke-width="1.5" d="M803.8 603.6c-.3.5-.5 8.8-.4 18.4l.1 17.5 16.4-.4c10.4-.2 17.6-.8 19.5-1.6 4.2-1.8 7.9-6.1 10-11.3 1.5-4.1 1.5-4.7-.1-9.8-1-3.3-3-6.8-5.2-8.9l-3.4-3.5h-14.6c-8 0-16.2-.3-18.2-.6-2-.4-3.9-.2-4.1.2zm31.2 18c0 3-2.7 4.4-8.7 4.4-11.8 0-12.3-8.7-.5-10 5.4-.6 9.2 1.7 9.2 5.6z"/></g></svg>